<?xml version="1.0" standalone="no"?>
<!DOCTYPE svg PUBLIC "-//W3C//DTD SVG 20010904//EN"
 "http://www.w3.org/TR/2001/REC-SVG-20010904/DTD/svg10.dtd">
<svg version="1.0" xmlns="http://www.w3.org/2000/svg"
 width="476.000000pt" height="472.000000pt" viewBox="0 0 476.000000 472.000000"
 preserveAspectRatio="xMidYMid meet">

<g transform="translate(0.000000,472.000000) scale(0.100000,-0.100000)"
fill="#000000" stroke="none">
<path d="M1187 4713 c656 -2 1730 -2 2385 0 656 1 120 2 -1192 2 -1312 0
-1848 -1 -1193 -2z"/>
<path d="M2311 4451 c-11 -11 -21 -24 -21 -28 0 -5 -19 -29 -43 -54 -23 -26
-53 -61 -67 -78 -27 -35 -50 -62 -83 -101 -12 -14 -51 -61 -86 -105 -36 -44
-67 -82 -70 -85 -3 -3 -24 -27 -46 -55 -22 -27 -44 -55 -50 -61 -5 -6 -23 -28
-40 -49 -16 -21 -41 -51 -55 -66 -14 -15 -32 -37 -40 -50 -8 -12 -27 -34 -41
-49 -14 -15 -37 -43 -50 -61 -22 -32 -63 -81 -99 -118 -8 -9 -26 -32 -40 -51
-14 -19 -32 -42 -40 -51 -17 -18 -31 -34 -120 -144 -36 -44 -67 -82 -70 -85
-3 -3 -16 -20 -29 -38 l-23 -33 23 -17 c13 -9 34 -22 46 -29 12 -6 35 -18 50
-27 62 -34 163 -72 215 -81 21 -3 40 -10 43 -15 8 -13 -98 -13 -139 -1 -88 25
-173 56 -191 68 -35 23 -45 16 -45 -32 0 -25 4 -45 9 -45 5 0 16 -6 24 -14 18
-18 201 -106 221 -106 8 0 17 -4 20 -9 3 -4 29 -12 58 -15 44 -6 50 -9 34 -18
-47 -26 -247 23 -358 89 -5 2 -8 -17 -8 -44 0 -44 3 -50 33 -67 63 -37 203
-103 242 -114 22 -7 56 -16 75 -22 27 -8 13 -9 -65 -5 -101 4 -161 21 -239 65
-20 11 -39 20 -41 20 -3 0 -5 -21 -5 -47 l0 -48 63 -36 c34 -20 85 -44 112
-55 28 -10 61 -24 75 -31 14 -7 32 -13 40 -13 8 0 33 -7 55 -16 39 -15 38 -15
-58 -10 -54 2 -103 9 -110 14 -7 5 -27 13 -45 17 -17 3 -53 17 -78 31 -25 13
-47 24 -50 24 -2 0 -4 -20 -4 -44 0 -52 12 -63 130 -119 127 -59 147 -67 172
-67 13 0 28 -4 33 -9 6 -5 19 -12 30 -15 11 -3 -20 -3 -70 -1 -85 4 -137 16
-212 50 -17 8 -36 15 -42 15 -6 0 -11 5 -11 10 0 6 -7 10 -15 10 -11 0 -15
-12 -15 -45 0 -41 3 -47 37 -68 73 -45 235 -117 267 -117 11 -1 35 -7 51 -15
29 -13 29 -13 -33 -14 -70 -1 -172 24 -254 63 -30 14 -58 26 -61 26 -4 0 -7
-18 -7 -41 0 -41 27 -78 58 -79 6 0 12 -4 12 -10 0 -5 4 -10 9 -10 5 0 43 -16
84 -35 41 -19 82 -35 90 -35 9 0 18 -4 21 -9 3 -4 23 -11 45 -15 59 -9 61 -26
4 -26 -81 0 -193 31 -275 76 -40 22 -48 18 -48 -27 0 -28 6 -46 18 -56 25 -19
214 -113 230 -113 7 0 20 -4 30 -9 9 -6 34 -13 54 -16 57 -9 56 -25 -1 -25
-71 0 -255 48 -271 71 -3 4 -18 11 -33 14 -26 7 -27 6 -27 -39 0 -25 4 -46 9
-46 5 0 16 -6 24 -14 18 -18 201 -106 221 -106 8 0 17 -4 20 -9 3 -4 29 -11
57 -15 71 -10 50 -30 -22 -23 -109 10 -217 44 -301 94 -5 2 -8 -17 -8 -44 0
-44 3 -50 33 -67 63 -37 203 -103 242 -114 22 -7 56 -16 75 -22 28 -8 15 -9
-60 -6 -97 5 -171 24 -243 65 -21 11 -40 21 -42 21 -3 0 -5 -20 -5 -45 0 -44
2 -46 53 -78 28 -18 72 -41 97 -52 25 -10 64 -27 87 -37 23 -10 48 -18 55 -18
7 0 31 -7 53 -16 39 -15 38 -15 -58 -10 -54 2 -103 9 -110 14 -7 6 -29 13 -49
17 -21 4 -38 11 -38 15 0 5 -13 11 -30 15 -16 4 -30 11 -30 16 0 5 -7 9 -15 9
-11 0 -15 -11 -15 -41 0 -51 13 -64 123 -117 121 -59 153 -72 175 -72 11 0 35
-7 53 -15 33 -15 31 -16 -56 -11 -85 5 -138 17 -212 51 -17 8 -36 15 -42 15
-6 0 -11 5 -11 10 0 6 -7 10 -15 10 -19 0 -21 -83 -2 -98 45 -37 204 -106 327
-143 l45 -14 -60 -3 c-77 -4 -183 24 -278 73 -42 22 -47 19 -47 -26 0 -42 26
-79 56 -79 7 0 14 -3 16 -8 4 -9 160 -82 176 -82 7 0 20 -4 30 -9 9 -5 37 -15
62 -22 l45 -14 -49 -3 c-47 -3 -183 21 -215 38 -54 29 -112 53 -116 48 -7 -6
141 -158 182 -186 42 -29 123 -72 135 -72 6 0 24 -6 41 -14 64 -28 134 -41
229 -41 53 0 98 2 101 5 5 6 27 566 29 750 1 124 2 129 9 65 4 -38 15 -173 24
-300 24 -337 33 -470 34 -473 1 -4 55 10 66 17 6 4 37 17 70 30 33 13 74 29
92 37 17 8 36 14 42 14 6 0 19 4 29 10 9 5 87 37 172 71 85 33 164 64 175 69
11 5 61 26 110 45 50 20 104 42 120 49 17 8 53 22 80 31 28 10 54 22 59 27 6
4 16 8 22 8 7 0 41 13 76 28 35 16 83 37 108 47 102 41 116 46 132 55 10 6 23
10 30 10 7 0 24 6 38 13 14 7 54 24 90 37 36 13 70 26 75 30 6 4 30 14 55 23
l45 17 -3 1072 c-2 590 -6 1075 -9 1078 -2 2 -13 -1 -23 -8 -11 -7 -28 -12
-37 -12 -10 0 -31 -7 -47 -15 -15 -8 -36 -15 -45 -15 -9 0 -28 -6 -42 -14 -14
-7 -39 -16 -55 -20 -24 -6 -98 -31 -189 -66 -11 -4 -76 -26 -145 -48 -239 -78
-435 -145 -467 -158 -17 -8 -40 -14 -50 -14 -10 0 -23 -4 -29 -9 -5 -4 -43
-19 -84 -32 -41 -12 -79 -26 -85 -30 -5 -4 -26 -10 -45 -14 -36 -8 -45 -11
-100 -40 -90 -46 -115 -59 -120 -64 -11 -12 -52 -32 -57 -28 -4 5 39 41 130
111 16 11 43 33 60 48 18 15 35 28 39 28 4 0 13 6 20 13 7 7 43 36 80 64 67
51 203 159 224 178 6 6 22 17 34 25 12 8 28 20 34 25 6 6 31 26 56 45 25 19
56 45 70 57 14 13 28 23 32 23 3 0 13 6 20 13 7 7 27 23 43 35 61 46 88 67
104 82 9 8 55 44 101 80 47 35 90 69 96 75 6 5 22 17 34 25 12 8 28 20 34 25
6 6 40 33 76 60 36 28 67 52 70 55 3 3 19 16 35 28 67 50 90 68 122 97 l33 30
-87 147 c-49 81 -93 149 -99 151 -9 4 -67 -38 -139 -101 -11 -10 -40 -33 -65
-52 -24 -19 -52 -42 -60 -50 -9 -8 -36 -31 -60 -50 -24 -19 -60 -48 -81 -65
-20 -16 -54 -43 -74 -60 -21 -16 -47 -38 -59 -47 -11 -10 -25 -21 -31 -25 -44
-34 -215 -173 -235 -190 -14 -13 -28 -23 -31 -23 -3 0 -17 -10 -31 -23 -13
-12 -47 -41 -74 -62 -27 -22 -54 -44 -60 -50 -7 -5 -26 -21 -44 -35 -18 -14
-44 -35 -58 -47 -14 -13 -28 -23 -31 -23 -3 0 -20 -13 -37 -28 -32 -27 -50
-42 -159 -129 -33 -26 -71 -58 -85 -71 -14 -12 -33 -25 -42 -28 -10 -3 -18 -9
-18 -13 0 -12 -47 -31 -130 -53 -103 -27 -305 -28 -371 -1 -25 10 -56 25 -69
34 -23 15 -23 17 -8 40 8 13 24 34 34 45 11 12 33 38 49 59 65 79 131 156 195
226 19 21 44 49 55 62 28 34 137 158 155 177 8 8 47 52 85 95 39 44 78 87 88
96 9 9 31 34 48 55 17 22 54 64 82 95 49 53 93 103 184 209 21 25 48 57 61 70
30 33 28 48 -17 99 l-38 44 -22 -22z m1057 -352 c67 -29 83 -36 120 -51 39
-16 40 -21 5 -44 -15 -9 -36 -26 -47 -36 -22 -20 -47 -23 -74 -9 -19 9 -40 19
-119 52 -29 12 -53 27 -52 33 0 16 80 74 102 75 10 1 39 -8 65 -20z m-210
-140 c26 -11 56 -24 67 -29 11 -5 37 -16 58 -24 21 -9 37 -20 35 -25 -5 -15
-89 -81 -103 -81 -8 0 -42 13 -77 29 -35 16 -80 35 -100 42 -21 7 -38 16 -38
20 0 4 17 19 38 35 20 16 43 34 50 41 17 16 15 17 70 -8z m-201 -145 c21 -9
47 -20 58 -25 118 -47 136 -61 95 -74 -11 -3 -20 -10 -20 -15 0 -5 -16 -18
-34 -30 l-35 -21 -48 21 c-26 12 -57 25 -68 29 -11 5 -39 17 -63 26 l-42 18
27 23 c16 12 39 31 53 43 31 25 30 25 77 5z m-177 -167 c19 -8 61 -25 93 -38
31 -12 57 -26 57 -30 0 -17 -94 -79 -111 -74 -30 10 -163 69 -184 83 -19 12
-19 13 -2 25 10 7 32 24 49 39 22 19 35 24 47 18 9 -5 32 -16 51 -23z m-190
-148 c35 -19 110 -49 123 -49 33 0 25 -30 -16 -62 -23 -18 -43 -36 -45 -40 -5
-11 -32 -10 -32 1 0 5 -14 12 -30 16 -17 4 -43 12 -58 20 -15 7 -46 21 -69 31
-24 10 -43 20 -43 23 1 3 11 14 23 23 12 10 33 26 47 38 25 20 62 19 100 -1z
m-196 -157 c33 -16 80 -37 104 -47 23 -10 42 -21 42 -24 0 -3 -17 -20 -37 -38
-36 -32 -76 -43 -88 -23 -3 6 -12 10 -19 10 -26 0 -156 65 -156 77 0 7 3 13 8
13 4 0 22 14 41 30 18 17 36 30 38 30 3 0 33 -13 67 -28z m-226 -132 c9 -5 40
-19 67 -30 28 -12 59 -25 70 -30 11 -4 28 -11 38 -14 26 -8 21 -18 -36 -59
-55 -40 -69 -41 -132 -13 -16 8 -50 22 -75 32 -74 29 -76 36 -28 74 24 19 45
38 46 42 5 11 29 10 50 -2z m1419 -37 c-3 -10 -8 -36 -11 -58 -11 -66 -29
-139 -39 -152 -5 -7 -28 -18 -51 -25 -22 -6 -46 -15 -53 -20 -6 -5 -14 -5 -17
0 -5 8 15 133 28 172 2 8 7 27 10 42 5 23 13 29 46 34 22 4 43 11 46 15 3 5
14 9 25 9 15 0 19 -5 16 -17z m-232 -95 c-3 -18 -10 -55 -16 -83 -6 -27 -13
-65 -16 -83 -6 -35 -36 -54 -110 -68 -34 -6 -36 -6 -29 17 3 13 9 46 13 72 3
26 10 50 14 53 5 3 9 17 9 32 0 40 13 53 66 72 72 26 76 25 69 -12z m-1367
-38 c37 -20 112 -50 126 -50 9 0 16 -4 16 -10 0 -5 7 -10 15 -10 27 0 16 -16
-40 -57 -37 -27 -62 -39 -75 -36 -11 3 -20 9 -20 14 0 5 -7 9 -16 9 -8 0 -36
9 -62 21 -110 48 -110 49 -49 96 44 33 75 40 105 23z m1143 -31 c-2 -8 -8 -34
-12 -59 -29 -145 -31 -150 -63 -164 -45 -20 -94 -35 -99 -30 -5 6 36 220 44
229 9 8 115 43 124 40 6 -1 8 -9 6 -16z m-247 -106 c-3 -21 -13 -63 -20 -93
-8 -30 -14 -62 -14 -72 0 -19 -74 -58 -109 -58 -19 0 -17 18 17 179 12 52 46
77 110 80 21 1 22 -2 16 -36z m-223 -66 c-5 -12 -15 -49 -21 -82 -26 -126 -21
-117 -84 -142 -62 -24 -82 -22 -71 6 4 9 11 41 16 71 17 99 32 138 53 146 55
18 102 30 108 27 4 -2 3 -14 -1 -26z m-241 -69 c-1 -13 -5 -41 -10 -63 -5 -22
-14 -62 -19 -89 -6 -27 -16 -55 -22 -62 -9 -11 -100 -37 -106 -30 -2 2 7 54
29 166 13 62 14 65 50 75 20 5 40 13 44 18 15 15 34 6 34 -15z m-232 -115 c-4
-32 -13 -69 -18 -83 -5 -14 -10 -38 -12 -54 -4 -35 -42 -60 -108 -71 -39 -7
-42 -6 -35 11 4 11 14 51 21 89 23 123 24 125 79 145 82 30 83 29 73 -37z
m405 -473 c9 0 25 -4 35 -9 9 -5 44 -17 77 -26 33 -10 71 -21 85 -26 14 -4 59
-17 100 -29 41 -12 94 -28 118 -36 23 -8 51 -14 62 -14 10 0 22 -4 25 -10 3
-5 15 -10 25 -10 10 0 22 -5 26 -11 6 -11 -8 -25 -77 -79 -18 -14 -37 -30 -43
-35 -6 -6 -33 -28 -61 -50 -27 -22 -59 -48 -70 -58 -11 -10 -33 -28 -48 -40
-15 -12 -39 -31 -51 -42 -13 -11 -41 -33 -61 -50 -21 -16 -48 -39 -61 -50 -12
-11 -39 -33 -60 -50 -20 -16 -51 -42 -68 -57 -17 -15 -34 -28 -38 -28 -6 0
-16 704 -10 726 2 8 14 7 40 -2 20 -7 45 -13 55 -14z"/>
<path d="M1187 3 c656 -2 1730 -2 2385 0 656 1 120 2 -1192 2 -1312 0 -1848
-1 -1193 -2z"/>
</g>
</svg>
