<?xml version="1.0" standalone="no"?>
<!DOCTYPE svg PUBLIC "-//W3C//DTD SVG 20010904//EN"
 "http://www.w3.org/TR/2001/REC-SVG-20010904/DTD/svg10.dtd">
<svg version="1.0" xmlns="http://www.w3.org/2000/svg"
 width="952.000000pt" height="828.000000pt" viewBox="0 0 952.000000 828.000000"
 preserveAspectRatio="xMidYMid meet">

<g transform="translate(0.000000,828.000000) scale(0.100000,-0.100000)"
fill="#000000" stroke="none">
<path d="M4600 8160 c-51 -46 -145 -55 -230 -21 -70 27 -106 29 -150 5 -21
-11 -66 -21 -115 -24 -70 -6 -87 -11 -137 -43 -31 -20 -64 -37 -73 -37 -20 0
-19 -16 1 -24 52 -20 238 -140 330 -214 125 -99 292 -263 347 -339 21 -28 41
-53 45 -55 11 -4 52 -73 52 -87 0 -6 14 -27 30 -45 34 -36 72 -105 65 -116 -2
-4 9 -22 24 -41 16 -19 32 -50 36 -69 4 -19 23 -57 42 -84 22 -31 39 -71 48
-111 12 -58 41 -126 57 -133 3 -2 4 -22 1 -44 -5 -47 1 -81 20 -100 25 -26 35
-62 24 -92 -7 -20 -6 -44 2 -80 7 -28 15 -131 18 -228 3 -98 10 -178 15 -178
9 0 77 55 265 217 67 57 147 122 177 143 30 21 106 81 168 133 62 51 145 115
183 142 39 26 129 92 200 145 213 159 295 204 448 246 58 16 95 31 242 99 33
15 96 40 140 55 167 59 246 88 252 93 8 9 -96 115 -136 139 -20 12 -63 45 -96
73 -33 28 -89 68 -125 89 -36 20 -80 48 -98 61 -18 13 -56 31 -83 40 -62 21
-75 12 -85 -53 -4 -26 -9 -51 -12 -56 -6 -11 -22 15 -22 39 0 11 -5 37 -10 57
-8 29 -19 40 -50 54 -22 10 -40 21 -40 25 0 10 27 19 56 19 14 0 22 4 19 10
-3 6 -12 10 -19 10 -7 0 -79 31 -158 69 -80 39 -191 86 -247 105 -56 20 -110
40 -120 46 -34 18 -242 68 -392 94 -172 30 -425 59 -529 60 -78 1 -94 -5 -237
-95 l-32 -20 -34 47 c-29 40 -33 52 -27 76 11 37 -6 37 -50 -2z m404 -192 c10
-29 33 -83 52 -119 18 -37 31 -75 30 -85 -3 -19 -26 -33 -26 -15 0 6 -6 11
-13 11 -7 0 -13 11 -12 27 0 24 -5 28 -37 34 -36 5 -37 4 -40 -25 -4 -31 -4
-31 -17 11 -10 31 -11 46 -3 56 6 7 17 45 23 85 7 40 15 72 18 72 4 0 15 -24
25 -52z m394 33 c26 -1 32 -5 32 -22 0 -18 -4 -20 -26 -15 l-27 7 5 -95 c5
-90 4 -95 -13 -85 -16 8 -19 22 -19 82 0 80 -8 100 -36 95 -13 -2 -20 4 -22
20 -3 21 0 22 35 18 21 -2 53 -5 71 -5z m172 -16 c41 -21 49 -59 20 -90 -20
-22 -21 -27 -10 -55 7 -16 19 -30 27 -30 8 0 11 -4 8 -10 -12 -20 -41 -9 -63
25 -21 33 -60 50 -49 23 19 -52 19 -58 -5 -58 -23 0 -23 2 -23 105 l0 105 33
0 c18 0 46 -7 62 -15z m283 4 c30 -16 37 -28 37 -66 0 -41 -23 -63 -66 -63
-40 0 -52 -19 -35 -57 10 -22 10 -25 -4 -19 -9 3 -19 6 -21 6 -2 0 -4 47 -4
105 l0 105 36 0 c19 0 45 -5 57 -11z m-163 -98 c0 -56 -4 -103 -10 -106 -6 -4
-10 32 -10 99 0 64 4 106 10 106 6 0 10 -40 10 -99z m168 -401 c28 -42 28 -84
-1 -135 -52 -92 -157 -31 -144 84 4 36 13 52 42 79 33 31 38 32 58 19 12 -8
32 -29 45 -47z m-678 18 c0 -12 -9 -22 -21 -25 -19 -5 -20 -12 -18 -89 2 -46
0 -87 -4 -91 -17 -17 -31 23 -35 102 -4 79 -6 85 -26 85 -22 0 -46 17 -46 32
0 7 116 16 138 9 6 -2 12 -12 12 -23z m161 -12 c29 -47 26 -117 -7 -149 -41
-42 -62 -43 -96 -9 -25 25 -30 38 -31 80 -2 106 86 157 134 78z m323 27 c11
-42 11 -206 -1 -210 -8 -3 -14 16 -19 57 l-7 61 -29 -35 -29 -36 -25 28 -25
27 6 -38 c5 -34 4 -38 -12 -35 -15 3 -18 15 -21 87 -4 119 11 128 69 41 l16
-24 27 47 c30 50 42 57 50 30z m590 -99 c5 -73 4 -120 -2 -126 -7 -7 -22 8
-44 43 -19 30 -43 61 -52 69 -17 13 -18 11 -11 -40 5 -41 3 -60 -8 -75 -14
-18 -15 -17 -22 25 -9 65 -2 203 11 207 6 2 26 -21 44 -51 36 -59 50 -63 50
-13 0 40 10 77 20 77 4 0 11 -52 14 -116z m-208 81 c21 -32 29 -102 15 -137
-13 -35 -54 -62 -83 -54 -35 9 -68 65 -68 115 0 83 96 136 136 76z m-531 -395
c10 -61 26 -83 79 -108 24 -12 47 -26 50 -31 4 -5 -18 -17 -48 -25 -30 -9 -59
-22 -63 -29 -4 -6 -10 -57 -13 -112 l-5 -100 -19 60 c-49 163 -55 174 -107
195 -39 16 -37 25 11 44 48 19 66 46 75 111 9 71 15 85 25 60 4 -11 11 -40 15
-65z m210 -446 c-11 -8 -35 -28 -53 -45 -32 -30 -32 -31 -21 -5 7 14 21 28 31
32 11 3 17 8 14 12 -7 6 37 31 44 25 3 -3 -4 -11 -15 -19z"/>
<path d="M4980 7875 c7 -9 15 -13 17 -11 7 7 -7 26 -19 26 -6 0 -6 -6 2 -15z"/>
<path d="M5513 7963 c-7 -2 -13 -18 -13 -34 0 -22 6 -30 24 -35 32 -8 46 2 46
30 0 36 -24 53 -57 39z"/>
<path d="M5780 7953 c0 -45 12 -63 40 -63 35 0 46 25 25 56 -19 29 -65 33 -65
7z"/>
<path d="M5765 7460 c-23 -44 -20 -89 8 -99 33 -13 56 11 71 71 13 56 -52 80
-79 28z"/>
<path d="M5270 7490 c-10 -6 -15 -27 -15 -67 0 -56 1 -58 27 -61 19 -2 30 3
38 18 24 45 -15 131 -50 110z"/>
<path d="M5581 7424 c0 -11 3 -14 6 -6 3 7 2 16 -1 19 -3 4 -6 -2 -5 -13z"/>
<path d="M5978 7489 c-20 -11 -33 -68 -24 -104 7 -27 42 -35 64 -13 34 34 -3
139 -40 117z"/>
<path d="M2795 8144 c-16 -2 -75 -9 -130 -15 -119 -14 -108 -12 -217 -38 -105
-26 -279 -87 -385 -136 -406 -187 -717 -502 -930 -940 -143 -297 -212 -622
-200 -955 7 -189 22 -288 71 -483 58 -228 155 -429 309 -642 239 -332 629
-600 1031 -710 178 -49 376 -75 556 -76 176 0 216 4 325 28 39 8 84 16 100 17
17 1 36 5 43 10 7 4 16 6 18 3 3 -3 40 28 83 69 43 41 100 91 127 111 47 36
46 29 -6 -28 -14 -15 -38 -45 -55 -66 -69 -91 -213 -183 -354 -225 -214 -64
-737 -10 -986 103 -67 31 -102 21 -47 -13 54 -34 67 -43 72 -49 3 -3 22 -15
42 -27 49 -30 207 -201 215 -232 3 -14 11 -28 17 -32 7 -5 6 -8 -4 -8 -12 0
-12 -2 -1 -9 10 -6 10 -10 1 -16 -7 -4 -13 1 -17 14 -7 26 -21 27 -39 4 -13
-17 -14 -17 -8 0 5 13 2 18 -8 15 -8 -2 -61 46 -121 108 -58 61 -125 123 -149
139 -24 16 -60 42 -81 58 -80 61 -239 119 -477 172 -161 36 -423 13 -629 -55
-80 -26 -225 -102 -366 -192 -38 -25 -235 -228 -235 -243 0 -16 -62 -95 -71
-90 -5 3 -6 -1 -3 -9 3 -8 -3 -28 -14 -43 -37 -53 -74 -147 -122 -308 -16 -54
-39 -193 -46 -274 -8 -93 11 -315 33 -381 10 -32 11 -46 3 -48 -7 -3 -5 -11 6
-23 19 -21 13 -35 -11 -25 -10 3 -13 11 -9 18 4 7 3 9 -1 5 -13 -12 -17 -57
-5 -57 5 0 10 -15 10 -33 0 -19 8 -42 20 -55 11 -12 20 -26 20 -32 0 -5 7 -10
15 -10 8 0 15 5 15 10 0 6 6 10 14 10 12 0 44 -43 66 -85 20 -41 105 -157 121
-165 21 -12 26 -32 6 -29 -49 6 -48 -11 4 -70 97 -109 129 -141 142 -141 7 0
18 -5 25 -12 19 -19 54 -17 59 3 4 14 10 16 22 10 9 -5 19 -8 22 -8 10 3 109
-63 109 -72 0 -4 6 -8 13 -8 25 0 202 -56 213 -68 7 -7 24 -10 38 -8 16 3 26
1 26 -6 0 -6 -7 -11 -15 -11 -8 0 -15 -4 -15 -10 0 -5 4 -10 9 -10 5 0 17 -3
27 -7 11 -4 15 -3 11 4 -5 7 0 9 14 6 13 -4 17 -8 9 -13 -8 -5 -7 -9 4 -13 9
-4 16 -2 16 4 0 6 24 9 60 7 33 -2 60 -7 60 -13 0 -5 -7 -64 -15 -130 -20
-163 -27 -290 -26 -480 2 -187 12 -263 41 -310 25 -40 113 -120 151 -137 14
-6 30 -21 35 -32 5 -12 15 -20 22 -18 7 1 12 -2 12 -7 0 -7 17 -13 75 -26 6
-1 19 -3 29 -3 18 -2 18 -3 3 -20 -18 -20 -13 -32 11 -32 8 0 12 6 9 14 -5 12
-1 12 30 0 19 -9 38 -13 41 -10 3 3 -1 6 -8 6 -7 0 -11 3 -8 6 9 9 89 -16 83
-26 -7 -12 16 -25 24 -13 4 6 69 -1 171 -19 91 -15 173 -29 183 -30 10 -1 23
-11 29 -22 19 -35 34 -44 74 -49 21 -2 -22 -4 -96 -5 -91 -2 -130 -5 -120 -12
16 -10 358 -14 384 -4 9 3 14 10 11 14 -10 16 36 21 88 10 60 -14 169 -9 128
5 l-25 8 23 9 c15 5 32 3 51 -7 29 -15 55 -11 78 12 7 7 22 13 32 13 10 0 21
7 24 16 7 19 51 12 78 -13 21 -18 68 -10 68 12 0 21 46 19 62 -3 7 -10 25 -19
41 -20 15 -1 91 -27 170 -58 78 -31 183 -69 234 -86 66 -22 90 -34 86 -44 -3
-10 3 -14 20 -14 14 0 29 -5 32 -10 4 -6 10 -8 14 -5 7 4 20 -4 68 -45 7 -5
17 -10 23 -10 5 0 10 -6 10 -12 0 -14 84 -23 210 -22 63 0 84 5 130 29 l55 29
260 2 c538 7 636 14 920 70 217 42 252 51 425 108 166 54 314 112 445 176 103
50 408 230 482 284 23 17 67 49 99 71 31 22 84 64 118 93 33 30 73 60 89 68
15 8 27 21 27 29 0 21 17 27 33 11 8 -8 17 -12 21 -9 3 4 13 -2 21 -13 12 -15
14 -35 9 -89 -3 -38 -11 -74 -18 -80 -13 -11 -46 -61 -46 -70 0 -3 16 -5 35
-5 41 0 53 19 37 55 -9 18 -8 25 4 29 36 14 63 -26 98 -145 14 -48 14 -50 -1
-38 -13 11 -15 11 -9 1 4 -7 9 -23 10 -35 3 -20 67 -97 82 -97 3 0 12 -7 20
-15 9 -8 24 -15 35 -15 10 0 19 -5 19 -11 0 -6 8 -8 19 -4 11 3 22 1 26 -4 3
-7 0 -8 -9 -5 -9 3 -16 1 -16 -5 0 -6 5 -11 10 -11 6 0 21 -10 33 -21 l22 -21
-22 11 c-12 6 -24 7 -27 2 -3 -5 13 -15 37 -23 23 -8 58 -21 77 -28 19 -7 46
-12 60 -12 14 0 34 -5 45 -11 11 -6 36 -14 55 -17 19 -4 43 -11 53 -15 9 -4
17 -3 17 2 0 5 -13 14 -30 20 -16 6 -30 16 -30 21 0 15 103 26 148 17 20 -4
55 -8 77 -8 37 -1 40 -4 40 -27 0 -14 -7 -28 -15 -32 -18 -8 33 -12 108 -9 29
2 52 -1 51 -5 -7 -40 21 -45 56 -10 20 20 31 23 66 19 30 -4 40 -3 35 5 -4 7
-1 12 8 12 15 0 16 -16 3 -37 -9 -15 16 -16 47 -4 19 7 19 8 -2 13 -14 4 -22
14 -22 27 0 15 -6 21 -21 21 -14 0 -19 5 -17 18 3 11 12 16 26 15 13 -2 21 1
18 6 -7 10 139 39 169 33 13 -2 28 -15 34 -28 6 -13 17 -24 25 -24 10 0 13 -6
9 -16 -5 -14 -2 -14 30 -1 19 9 59 20 89 26 72 16 163 63 165 87 0 11 10 37
22 58 11 21 18 43 15 47 -3 5 -1 9 5 9 11 0 21 26 26 70 2 17 11 45 19 62 8
18 17 47 21 63 22 107 33 137 46 129 5 -3 9 2 9 11 0 9 -4 13 -10 10 -6 -4
-11 6 -11 22 -2 26 -2 26 -6 4 -6 -33 -32 -59 -42 -42 -10 16 -3 151 11 224
12 56 32 75 44 42 9 -22 34 -18 34 5 0 11 5 20 10 20 6 0 10 28 10 63 0 55 3
67 25 87 14 13 25 29 25 37 0 18 32 53 42 47 5 -3 25 2 44 11 35 16 35 16 14
33 l-22 18 28 2 c34 3 58 22 29 22 -16 0 -13 5 13 22 56 36 115 104 157 180
45 84 45 85 29 443 -13 271 -2 1011 15 1046 10 20 18 24 42 21 20 -3 29 -10
29 -23 0 -38 40 -14 45 26 1 6 4 24 8 40 4 17 3 43 -1 59 l-8 29 -21 -22 c-14
-15 -23 -19 -28 -11 -4 6 -12 9 -19 7 -8 -3 -12 19 -14 78 -7 263 -141 432
-484 610 -194 101 -493 173 -803 193 -77 6 -149 13 -160 17 l-20 8 20 -16 20
-16 -20 -1 c-107 -3 -319 -22 -382 -34 -158 -32 -386 -66 -396 -59 -6 3 -7 1
-3 -5 5 -8 -1 -12 -18 -12 -14 0 -28 -4 -31 -10 -10 -17 -32 -11 -38 10 -3 12
-14 20 -25 20 -21 0 -40 30 -19 30 7 0 3 7 -7 15 -17 13 -17 15 -4 15 9 0 20
-4 23 -10 10 -16 28 -12 21 5 -3 8 -3 15 -1 15 3 0 44 11 92 25 161 47 672
117 681 93 5 -11 40 -10 47 2 4 6 77 10 185 10 190 0 284 -13 478 -65 51 -14
95 -25 98 -25 16 0 -16 373 -47 555 -28 167 -161 697 -179 718 -5 5 -28 0 -52
-11 -51 -22 -82 -74 -93 -152 -4 -25 -11 -58 -15 -75 -5 -16 -11 -51 -15 -77
-3 -27 -9 -48 -13 -48 -4 0 -13 40 -20 89 -26 195 -45 234 -124 266 -35 14
-187 45 -223 45 -6 0 -6 3 0 9 6 5 48 17 95 26 119 23 143 32 173 63 32 34 44
64 68 181 28 135 25 162 -25 265 l-43 88 -24 -40 c-81 -139 -263 -388 -349
-477 -142 -148 -224 -244 -259 -301 -19 -32 -51 -64 -84 -86 -29 -20 -74 -54
-101 -77 -26 -23 -74 -59 -107 -82 -33 -22 -87 -66 -122 -98 -102 -94 -456
-354 -579 -425 -26 -14 -84 -53 -128 -85 -45 -31 -105 -69 -133 -84 -108 -55
-118 -73 -167 -300 -10 -49 -30 -106 -45 -130 -132 -213 -144 -234 -112 -209
6 5 57 29 112 52 55 23 115 48 134 56 18 8 42 12 53 8 12 -3 18 -2 15 3 -4 6
5 15 18 21 14 7 25 7 25 3 0 -5 -8 -12 -17 -14 -10 -3 -4 -5 12 -6 21 0 39 9
59 29 35 35 57 39 53 9 -3 -30 19 -35 27 -6 5 20 11 23 31 19 14 -2 25 -11 25
-18 0 -8 11 -14 28 -15 20 0 10 -7 -43 -29 -64 -25 -100 -31 -66 -11 7 5 10
14 6 21 -5 8 -13 6 -26 -9 -21 -23 -25 -36 -7 -25 6 4 8 3 4 -4 -6 -10 -56
-25 -73 -22 -5 0 -7 10 -5 20 2 14 -3 20 -15 21 -10 0 -31 2 -46 2 -21 2 -40
-9 -69 -35 -34 -32 -38 -39 -28 -57 9 -18 7 -22 -12 -30 -220 -86 -365 -147
-518 -218 -36 -17 -112 -52 -170 -78 -58 -26 -110 -51 -115 -56 -12 -9 -309
-148 -415 -194 -41 -18 -164 -74 -273 -124 -108 -51 -210 -93 -227 -93 -16 -1
-27 -4 -25 -8 8 -12 -39 -30 -88 -34 -26 -2 -51 -7 -55 -11 -4 -4 8 -5 26 -3
45 6 30 -4 -65 -45 -78 -33 -103 -36 -68 -7 9 7 14 19 11 26 -3 7 0 15 7 18 7
2 -2 5 -20 5 -17 1 -33 -4 -35 -11 -3 -7 -10 -8 -17 -3 -14 8 127 74 162 75 9
0 17 4 17 8 0 9 70 37 83 34 4 -1 7 2 7 7 0 5 14 14 30 21 36 15 36 17 9 46
-34 36 -37 102 -6 150 26 41 154 163 188 178 10 5 19 13 19 18 0 4 11 6 23 3
16 -4 40 3 75 24 29 17 52 27 52 23 0 -4 -65 -72 -145 -152 -80 -80 -145 -152
-145 -161 0 -9 8 -23 18 -31 26 -24 88 -10 242 56 142 60 212 89 270 114 138
57 498 248 622 329 175 115 244 188 324 346 49 96 104 265 111 342 l6 65 94
57 c353 217 665 434 857 596 66 56 150 124 186 152 36 27 76 60 90 72 14 13
29 23 35 23 18 1 92 74 161 160 37 47 95 115 128 151 209 226 251 279 399 499
89 131 240 386 297 501 73 145 129 319 134 415 l4 78 64 51 c80 62 348 296
447 390 74 70 106 120 95 149 -3 9 -13 16 -21 16 -33 0 -238 -127 -345 -214
-62 -50 -166 -132 -230 -182 l-118 -91 -112 5 c-112 4 -427 -18 -538 -39 -87
-17 -274 -59 -530 -120 -72 -17 -192 -61 -235 -85 -22 -12 -85 -38 -140 -57
-110 -39 -378 -154 -425 -184 -16 -10 -60 -39 -97 -64 -37 -25 -113 -75 -168
-112 -143 -95 -240 -167 -405 -298 -80 -63 -172 -135 -205 -161 -84 -64 -242
-210 -360 -334 l-100 -105 -103 -9 c-110 -10 -158 -18 -350 -56 -214 -43 -346
-105 -525 -246 -50 -39 -67 -41 -67 -8 0 10 -6 20 -14 23 -9 4 -13 14 -9 29 3
16 -22 -6 -80 -67 -47 -49 -83 -92 -80 -95 3 -3 8 1 10 8 3 6 11 12 18 12 8 0
18 7 23 17 7 11 9 2 7 -33 -2 -40 -5 -48 -19 -46 -12 2 -17 -2 -14 -15 3 -19
-26 -54 -137 -168 -33 -34 -87 -94 -120 -135 -33 -40 -102 -112 -152 -160 -94
-87 -109 -114 -78 -140 23 -19 92 -24 138 -10 84 25 223 72 255 87 128 57 223
73 287 48 25 -9 45 -21 45 -26 0 -5 8 -13 18 -16 38 -15 52 -37 45 -76 -3 -20
-9 -37 -13 -37 -4 0 -10 -8 -12 -18 -6 -21 -117 -82 -137 -74 -9 3 -11 0 -6
-8 5 -8 3 -11 -4 -9 -7 3 -12 8 -12 12 1 4 -5 20 -14 37 -11 21 -12 31 -3 36
7 5 8 2 3 -7 -6 -11 -5 -11 4 -3 7 6 13 18 14 25 2 8 10 25 20 39 9 13 17 35
17 47 0 19 -6 23 -28 23 -37 0 -123 -30 -215 -74 -140 -67 -278 -116 -329
-116 -17 0 -101 -18 -187 -39 -86 -21 -174 -42 -196 -45 l-40 -6 35 14 c19 8
75 27 123 42 99 31 147 57 147 78 0 32 4 32 -295 -42 -44 -11 -89 -23 -99 -27
-14 -6 -17 -5 -12 3 11 18 95 58 183 88 92 31 153 60 153 74 0 22 -99 0 -379
-84 -207 -63 -191 -59 -191 -47 0 5 17 12 38 15 54 10 91 26 142 62 25 18 91
51 148 74 56 24 102 47 102 51 0 12 -5 12 -100 -17 -340 -102 -464 -129 -314
-70 38 15 80 35 94 44 14 9 66 37 115 64 50 26 84 48 76 48 -22 0 -180 -50
-281 -90 -52 -20 -108 -40 -125 -44 l-30 -7 20 20 c11 11 60 41 109 66 114 61
184 105 164 105 -25 0 -135 -36 -242 -80 -55 -22 -109 -40 -120 -40 -20 0 -20
1 4 20 25 20 67 46 165 101 l50 29 -35 0 c-32 0 -187 -52 -240 -80 -12 -6 -24
-9 -27 -6 -9 8 56 62 104 87 24 12 51 31 60 42 18 19 17 19 -17 14 -19 -3 -69
-14 -110 -26 -41 -11 -79 -21 -85 -21 -5 0 11 18 38 41 60 52 61 69 3 69 -25
0 -56 -4 -70 -10 -35 -13 -33 2 6 34 l32 26 -30 0 c-27 0 -67 -9 -119 -25 -17
-5 -25 2 -43 34 -48 86 -122 124 -229 119 -62 -3 -78 -8 -118 -36 -25 -17 -48
-32 -50 -32 -3 0 -5 36 -5 81 0 80 0 80 -38 114 -43 40 -48 41 -82 15 -38 -30
-53 -26 -46 13 38 194 2 310 -109 347 -47 16 -93 6 -146 -30 -47 -32 -65 -38
-53 -17 5 8 2 8 -9 -2 -38 -31 -117 33 -117 95 0 43 17 44 55 4 16 -17 39 -30
53 -30 31 0 79 51 91 98 15 58 23 176 12 191 -6 10 -27 14 -66 12 -32 -1 -72
3 -89 9 -44 14 -78 69 -83 133 l-4 52 18 -25 c48 -66 76 -90 105 -90 87 0 142
95 123 215 -7 53 -56 115 -105 135 -17 7 -30 15 -30 19 0 3 36 23 79 43 46 22
102 59 133 87 l53 50 -100 -51 c-55 -27 -114 -61 -132 -74 -37 -28 -43 -29
-43 -9 0 14 113 115 129 115 5 0 55 34 112 76 57 42 111 80 119 84 8 5 12 11
9 14 -3 4 -26 -8 -50 -26 -24 -17 -78 -46 -119 -64 -41 -17 -106 -48 -144 -68
-66 -35 -99 -39 -76 -11 7 8 44 32 83 54 89 49 347 233 347 247 0 7 -76 -34
-160 -86 -130 -81 -317 -161 -259 -112 15 13 287 192 350 230 35 21 78 62 65
62 -11 0 -125 -59 -264 -137 -73 -41 -136 -73 -138 -70 -11 11 67 75 167 137
57 36 129 89 159 118 70 69 146 125 190 143 50 19 120 59 120 68 0 4 -49 -16
-108 -45 -72 -35 -139 -78 -200 -127 -50 -41 -126 -94 -169 -117 -43 -23 -86
-49 -95 -58 -16 -13 -18 -13 -18 0 0 22 76 96 124 120 40 20 95 61 167 124 20
17 84 59 143 94 58 34 109 67 113 72 3 6 2 9 -3 6 -5 -2 -47 -23 -95 -46 -47
-23 -126 -74 -176 -114 -51 -40 -115 -86 -143 -102 -51 -28 -52 -28 -39 -5 7
13 27 45 45 71 18 26 35 53 37 60 4 10 8 9 17 -2 10 -13 11 -12 6 4 -20 59
252 350 452 483 355 237 858 359 1260 307 85 -11 113 -15 184 -30 226 -45 439
-138 648 -282 341 -235 584 -535 727 -897 41 -104 50 -141 33 -130 -7 4 -3 -5
9 -21 24 -33 39 -94 23 -94 -6 0 -32 9 -58 20 -69 30 -64 18 7 -15 33 -16 65
-37 70 -47 12 -22 12 -61 -1 -53 -16 10 -162 45 -184 44 -12 0 23 -15 76 -33
113 -38 128 -48 128 -87 0 -34 2 -33 -44 -14 -36 15 -234 65 -258 65 -31 0 15
-21 100 -45 161 -46 212 -75 212 -120 0 -24 -1 -24 -42 -11 -276 86 -328 100
-328 88 0 -4 79 -36 175 -72 154 -56 215 -89 215 -113 0 -17 -67 -4 -196 39
-148 49 -260 68 -252 43 2 -7 39 -23 80 -35 42 -12 117 -41 168 -63 51 -23
110 -44 131 -47 34 -6 58 -28 44 -43 -6 -5 -19 -2 -249 63 -136 38 -191 45
-184 24 7 -22 68 -57 132 -77 122 -39 279 -110 245 -111 -18 0 -129 31 -264
74 -101 33 -128 34 -123 4 2 -16 24 -32 81 -61 43 -22 76 -41 74 -43 -1 -2
-30 3 -62 11 -85 20 -115 19 -115 -3 0 -27 28 -49 91 -72 l54 -20 -50 5 c-27
3 -71 9 -96 12 l-46 5 -6 -42 c-3 -24 -13 -47 -21 -52 -9 -5 -16 -15 -16 -23
0 -7 -21 -32 -47 -54 -44 -38 -47 -54 -5 -32 9 5 32 15 50 21 17 7 32 16 32
21 0 5 13 8 28 7 15 -1 33 1 39 5 6 4 31 1 55 -7 26 -9 46 -12 52 -6 5 5 22 6
37 3 20 -4 30 -1 34 10 4 8 27 20 53 27 53 15 74 28 66 41 -4 8 73 15 101 9 5
-1 27 3 50 9 22 5 52 12 66 15 38 8 49 43 60 195 10 144 0 319 -26 461 -8 41
-17 93 -20 115 -5 45 -68 237 -109 335 -49 116 -189 349 -267 443 -131 159
-321 327 -514 456 -65 44 -334 175 -410 200 -199 66 -350 91 -580 96 -93 2
-183 2 -200 -1z m6080 -475 c-49 -50 -345 -302 -438 -372 -58 -44 -99 -51 -51
-9 121 107 520 429 534 431 2 1 -18 -22 -45 -50z m-579 -434 c15 -24 15 -25
-41 -82 -31 -32 -61 -57 -67 -55 -5 1 -7 -2 -4 -7 3 -5 0 -14 -8 -20 -10 -9
-15 -9 -18 -1 -2 6 -21 -5 -43 -25 -28 -25 -31 -31 -12 -19 50 30 28 7 -84
-87 -170 -145 -201 -168 -249 -194 -25 -13 -61 -34 -81 -48 -21 -14 -48 -28
-60 -32 -31 -9 -91 -46 -85 -52 2 -2 27 5 54 17 28 12 59 20 69 17 17 -4 17
-4 -2 -11 -94 -34 -268 -147 -369 -241 l-25 -23 -23 25 c-17 19 -19 27 -10 30
19 7 161 103 196 133 16 14 46 39 65 56 20 17 50 38 67 47 34 18 63 47 45 47
-14 0 -103 -57 -188 -121 -37 -28 -84 -59 -104 -69 -19 -10 -50 -32 -68 -49
-18 -17 -34 -31 -36 -31 -1 0 -10 11 -18 24 -15 23 -14 24 48 69 34 25 78 53
96 62 42 22 102 66 96 71 -6 6 -124 -61 -167 -94 -19 -15 -47 -35 -63 -45 -27
-17 -28 -17 -51 10 -13 15 -22 31 -19 36 2 4 31 21 64 37 80 41 75 46 -8 8
l-66 -31 -24 29 c-12 16 -23 36 -23 44 0 11 52 39 158 85 86 38 215 98 286
133 71 35 147 70 170 78 41 15 126 61 126 69 0 2 -37 -12 -82 -32 -46 -19
-112 -48 -148 -63 -36 -15 -128 -58 -205 -95 -77 -37 -180 -83 -230 -101 -97
-36 -100 -36 -111 24 -5 25 -2 36 12 46 9 7 101 46 203 86 102 40 217 86 256
103 38 16 112 43 163 59 52 16 91 32 88 35 -11 11 -139 -29 -299 -94 -264
-106 -429 -165 -439 -155 -5 5 -11 54 -15 109 l-6 100 49 16 c27 8 83 23 124
32 41 10 130 33 197 51 260 72 518 110 775 113 125 1 128 1 144 -24z m25 -234
c-29 -115 -72 -212 -171 -384 -167 -291 -386 -616 -416 -617 -5 0 -18 6 -28
13 -17 12 -10 24 85 145 133 168 351 509 442 688 36 71 97 239 99 271 1 26 2
25 5 -5 2 -18 -5 -68 -16 -111z m-1391 -70 c0 -32 7 -75 15 -94 23 -56 20 -74
-17 -81 -17 -3 -77 -27 -132 -53 -83 -38 -214 -93 -222 -93 -9 0 -26 101 -27
164 l-2 78 90 36 c90 35 273 100 288 101 4 1 7 -25 7 -58z m1034 -99 c-88 -85
-247 -197 -264 -187 -13 8 6 35 24 35 20 0 153 96 230 165 100 91 108 80 10
-13z m-1493 -104 c15 -107 80 -292 159 -457 39 -79 70 -145 70 -148 0 -2 -7 2
-15 11 -8 8 -15 19 -15 25 0 6 -5 11 -11 11 -5 0 -7 5 -3 12 4 7 3 8 -4 4 -9
-5 -9 -13 -1 -27 10 -19 8 -19 -38 -13 -26 3 -52 8 -57 11 -4 3 -5 -5 -2 -18
7 -24 7 -24 -9 -4 -85 104 -242 588 -196 603 6 2 33 19 59 37 26 18 48 31 50
30 2 -2 8 -36 13 -77z m1497 43 c-4 -13 -119 -101 -132 -101 -13 0 0 12 66 66
52 42 73 53 66 35z m-982 -73 c17 -49 125 -263 163 -323 l30 -47 -42 -32 c-23
-17 -83 -57 -132 -88 -50 -31 -110 -74 -133 -96 l-42 -39 -52 81 c-66 99 -71
108 -103 175 -26 56 -31 81 -16 81 14 0 242 112 238 116 -2 3 -60 -23 -128
-56 -68 -33 -127 -56 -130 -52 -4 4 -17 40 -29 81 -12 40 -24 79 -26 86 -4 8
9 18 33 25 21 7 94 36 163 65 69 29 132 55 140 58 33 12 53 2 66 -35z m-701
-95 c43 -194 154 -463 261 -630 19 -29 34 -55 34 -57 0 -5 -134 -114 -170
-138 -51 -35 -75 -57 -68 -64 8 -8 127 79 198 145 25 22 47 41 50 41 7 0 52
-71 48 -74 -2 -2 -64 -44 -139 -95 -136 -91 -188 -135 -176 -147 3 -4 21 6 39
21 18 14 76 54 128 88 52 33 110 73 129 88 37 30 51 27 72 -12 8 -15 -12 -32
-138 -115 -82 -53 -197 -135 -258 -182 -60 -46 -98 -72 -84 -56 15 16 39 52
54 79 16 28 33 56 38 63 13 16 16 40 23 160 6 88 4 97 -27 175 -26 66 -45 94
-93 143 -84 84 -147 108 -281 109 -94 0 -105 -2 -170 -34 -228 -112 -324 -385
-215 -607 17 -34 47 -77 68 -95 90 -80 103 -89 121 -89 11 0 32 -5 47 -10 l28
-11 -32 -19 c-18 -11 -32 -22 -32 -25 0 -7 46 12 75 31 20 13 34 15 68 8 l42
-9 -95 -60 c-52 -32 -112 -67 -132 -77 -25 -12 -35 -23 -32 -33 5 -12 10 -12
27 -3 12 6 24 14 27 17 3 4 38 26 78 50 40 24 88 56 108 72 19 15 56 35 82 45
26 9 79 31 117 49 39 18 82 36 98 39 15 4 138 81 274 172 212 143 248 163 260
151 18 -18 6 -31 -91 -96 -132 -89 -301 -207 -396 -277 -52 -39 -133 -97 -180
-128 -47 -32 -116 -80 -155 -107 -125 -88 -175 -106 -175 -63 0 10 3 14 7 11
3 -4 16 1 27 11 12 10 50 36 86 57 120 72 345 221 359 238 19 23 -3 22 -37 -1
-15 -10 -58 -36 -97 -57 -59 -32 -267 -164 -357 -226 l-27 -19 -90 98 c-49 53
-105 117 -123 142 -109 145 -258 461 -258 548 0 37 6 43 143 164 78 70 167
146 197 169 30 24 84 68 120 100 142 122 537 406 571 408 4 1 15 -34 24 -76z
m1521 42 c-11 -8 -25 -15 -30 -15 -6 0 -2 7 8 15 11 8 25 15 30 15 6 0 2 -7
-8 -15z m-116 -43 c0 -5 -17 -16 -37 -26 -20 -10 -46 -26 -57 -36 -30 -27
-215 -172 -253 -199 -18 -12 -37 -19 -43 -16 -14 9 -12 35 3 35 7 0 40 22 73
48 32 26 86 68 119 92 33 24 62 47 65 50 8 11 103 59 118 60 6 0 12 -4 12 -8z
m52 -34 c-7 -7 -12 -8 -12 -2 0 14 12 26 19 19 2 -3 -1 -11 -7 -17z m-36 -25
c-14 -15 -182 -153 -265 -218 -59 -47 -87 -63 -94 -56 -6 6 -9 12 -6 14 2 2
22 17 44 33 22 16 72 55 111 86 132 106 189 147 203 148 8 0 11 -3 7 -7z m-6
-98 c-13 -14 -26 -22 -29 -19 -3 3 5 14 18 25 33 27 39 24 11 -6z m110 0 c-7
-8 -18 -15 -24 -15 -6 0 -2 7 8 15 25 19 32 19 16 0z m-179 -176 c-82 -83
-141 -137 -141 -127 0 15 269 282 277 274 2 -2 -60 -68 -136 -147z m-86 39
c-60 -57 -113 -103 -119 -103 -6 0 -11 9 -11 19 0 13 21 34 61 60 33 23 82 60
110 83 92 80 67 43 -41 -59z m-326 -48 c0 -6 -215 -165 -292 -216 -48 -31 -60
-35 -68 -23 -5 8 -9 17 -9 20 0 18 97 99 206 171 68 45 124 87 124 92 0 6 9 0
20 -14 11 -14 19 -27 19 -30z m461 -71 c-34 -39 -68 -82 -77 -96 -11 -17 -19
-21 -27 -13 -7 7 14 35 74 95 47 47 86 85 88 85 2 0 -24 -32 -58 -71z m78 -25
c-35 -42 -73 -89 -85 -103 -11 -14 -25 -23 -29 -19 -4 5 17 34 47 65 30 32 68
75 83 96 16 20 33 37 38 37 5 0 -19 -34 -54 -76z m-498 46 c14 -26 -7 -46
-170 -154 -164 -109 -165 -109 -180 -91 -15 19 -25 10 90 86 102 67 223 158
228 171 6 14 21 9 32 -12z m56 -76 c2 -5 -23 -28 -54 -51 -31 -24 -101 -77
-156 -118 -97 -74 -119 -85 -131 -65 -8 13 15 31 180 149 134 95 156 106 161
85z m-657 -45 c-7 -4 -16 -5 -19 -2 -3 3 1 8 8 10 6 3 13 12 13 21 1 14 2 13
6 -2 3 -10 -1 -22 -8 -27z m-51 -42 c8 -9 13 -20 10 -22 -9 -9 -47 58 -40 70
4 5 8 1 10 -10 2 -11 11 -28 20 -38z m760 31 c-11 -33 -281 -248 -312 -248
-31 0 -15 19 62 74 42 31 113 85 157 121 78 64 101 77 93 53z m-1307 -26 c64
-28 116 -83 153 -161 28 -59 31 -76 31 -156 0 -117 -32 -192 -112 -265 -172
-157 -449 -112 -541 88 -50 110 -46 189 18 319 46 94 95 140 187 179 49 21 70
24 138 21 51 -3 97 -12 126 -25z m622 -23 c30 -16 38 -31 24 -47 -13 -16 -15
-52 -2 -71 20 -33 -16 3 -47 47 -31 43 -32 49 -18 64 19 21 17 20 43 7z m737
-7 c0 -17 -272 -262 -290 -262 -22 0 -6 19 63 71 39 31 104 88 142 127 67 68
85 82 85 64z m70 -35 c0 -1 -48 -50 -107 -107 -104 -101 -100 -96 32 44 52 54
75 74 75 63z m75 -56 c-7 -22 -262 -271 -278 -271 -6 0 55 67 134 148 79 81
146 147 147 146 2 -1 1 -12 -3 -23z m80 6 c17 -13 17 -16 -13 -58 -17 -24 -64
-80 -104 -125 -41 -44 -87 -97 -102 -117 -25 -33 -31 -36 -45 -23 -9 7 -26 17
-38 20 -32 10 -28 31 8 46 36 15 163 140 220 218 43 57 46 58 74 39z m-2479
-227 c13 -25 53 -109 88 -187 58 -128 160 -296 239 -395 17 -21 28 -39 26 -41
-2 -2 -29 -19 -59 -37 -30 -19 -101 -68 -157 -110 -109 -80 -192 -133 -319
-204 -98 -54 -196 -125 -188 -138 3 -5 11 -5 17 0 39 29 160 104 207 127 30
15 88 50 128 76 40 27 75 49 77 49 3 0 51 35 108 78 56 42 119 88 140 102 20
14 37 28 37 33 0 13 25 7 48 -13 22 -18 23 -40 1 -40 -5 0 -22 -9 -37 -19 -15
-10 -74 -49 -132 -86 -58 -37 -121 -81 -140 -97 -19 -16 -41 -33 -48 -39 -21
-17 -225 -141 -247 -149 -11 -5 -60 -34 -110 -64 -80 -49 -91 -54 -105 -41
-12 13 -12 19 -2 36 17 26 9 35 -11 14 -18 -17 -13 -23 -100 120 -65 108 -121
310 -103 378 7 31 124 176 365 457 101 117 225 241 239 238 7 -2 24 -23 38
-48z m-273 -56 c8 -8 -60 -67 -70 -61 -4 3 -47 1 -95 -4 -204 -20 -454 -115
-602 -226 -93 -69 -396 -360 -396 -379 0 -9 -4 -13 -9 -10 -5 3 -14 -1 -21 -9
-11 -13 -10 -14 6 -8 17 6 17 5 5 -11 -8 -9 -20 -15 -28 -12 -8 3 -11 2 -8 -3
3 -6 14 -9 25 -8 10 1 16 5 14 9 -3 4 0 8 5 8 6 0 11 -9 11 -20 0 -23 29 -27
48 -8 7 7 12 8 12 2 -1 -9 -274 -146 -320 -159 -23 -7 -24 -7 -10 11 114 144
531 567 650 659 58 45 186 113 273 145 125 46 487 106 510 84z m1907 -22 c0
-16 -56 -60 -250 -198 -247 -175 -570 -392 -653 -438 -38 -21 -71 -34 -81 -30
-25 10 -19 17 42 46 62 29 119 66 282 182 58 41 170 119 250 173 79 54 201
137 270 186 123 85 140 95 140 79z m70 -62 c0 -6 -37 -37 -82 -70 -204 -147
-274 -197 -433 -308 -94 -66 -186 -127 -205 -137 -19 -10 -57 -35 -85 -55 -49
-36 -133 -75 -142 -66 -3 2 15 15 39 27 23 12 99 59 168 104 69 45 156 101
195 126 38 24 92 62 120 84 27 22 85 62 128 89 43 26 124 86 180 132 102 83
117 93 117 74z m439 -11 c40 -12 40 -13 20 -27 -31 -22 -91 -33 -125 -22 l-29
8 31 1 c41 1 62 24 43 48 -12 15 -12 16 2 11 10 -4 35 -12 58 -19z m-1969
-130 c12 -22 37 -63 57 -90 19 -28 33 -52 30 -55 -2 -3 -20 19 -39 48 -39 59
-81 138 -73 138 2 0 14 -18 25 -41z m1684 10 c-10 -12 -37 -35 -59 -52 -38
-29 -38 -28 10 21 47 49 90 76 49 31z m127 0 c19 -10 13 -17 -67 -92 -158
-148 -418 -341 -714 -531 -167 -107 -170 -108 -195 -92 -14 9 -25 20 -25 24 0
4 21 18 47 32 27 14 87 51 136 83 48 31 90 57 93 57 6 0 27 15 189 131 173
125 323 241 420 327 44 39 84 71 88 71 5 1 17 -4 28 -10z m-3206 -49 c-3 -5
-10 -10 -16 -10 -5 0 -9 5 -9 10 0 6 7 10 16 10 8 0 12 -4 9 -10z m675 -34 c0
-2 -8 -10 -17 -17 -16 -13 -17 -12 -4 4 13 16 21 21 21 13z m-40 -36 c0 -5 -5
-10 -11 -10 -5 0 -7 5 -4 10 3 6 8 10 11 10 2 0 4 -4 4 -10z m2300 6 c0 -4
-192 -151 -220 -169 -31 -19 58 57 133 114 74 56 87 64 87 55z m-1226 -286
c34 -36 82 -81 106 -99 25 -19 95 -74 155 -121 61 -48 136 -102 168 -122 l57
-35 -29 -13 c-17 -6 -65 -34 -108 -62 -87 -55 -764 -395 -831 -417 -32 -11
-45 -12 -54 -3 -18 18 -7 25 152 95 80 35 169 79 198 96 30 17 70 38 90 46 40
17 446 246 481 272 9 7 -31 39 -177 145 -162 118 -205 160 -272 268 -22 36
-31 54 -19 40 11 -14 49 -54 83 -90z m1626 -25 c18 -55 35 -106 38 -112 2 -8
-4 -13 -15 -13 -12 0 -23 11 -30 31 -10 27 -16 30 -45 27 -23 -2 -36 -10 -43
-26 -11 -26 -31 -24 -28 4 2 22 55 172 67 192 13 21 21 6 56 -103z m265 89 c0
-12 -8 -20 -22 -22 -21 -3 -22 -9 -25 -85 -3 -70 -6 -82 -21 -85 -17 -4 -19 3
-16 80 3 79 3 83 -19 86 -15 2 -22 10 -22 26 0 22 3 23 63 21 53 -2 62 -5 62
-21z m157 -15 c17 -23 17 -27 2 -73 -17 -48 -17 -49 6 -66 15 -11 21 -23 17
-34 -10 -26 -25 -19 -52 24 -14 22 -29 40 -35 40 -5 0 -10 -17 -12 -37 -2 -26
-8 -38 -18 -38 -12 0 -16 20 -18 107 l-3 107 28 3 c39 5 64 -5 85 -33z m103
-65 c7 -104 1 -135 -24 -120 -12 8 -16 208 -4 219 17 17 22 0 28 -99z m164 77
c23 -32 28 -83 9 -98 -7 -6 -30 -13 -51 -17 -36 -7 -38 -9 -36 -41 4 -40 -3
-51 -20 -31 -7 8 -15 57 -18 109 -6 105 -8 103 64 106 24 1 36 -6 52 -28z
m214 19 c41 0 48 -3 45 -17 -2 -10 -13 -19 -26 -21 -12 -2 -22 -11 -23 -20 0
-9 -2 -46 -2 -82 -3 -97 -21 -85 -25 15 l-3 85 -29 0 c-26 0 -30 4 -30 26 0
22 3 25 23 20 12 -3 44 -6 70 -6z m173 -4 c55 -39 67 -142 21 -183 -47 -43
-89 -34 -113 23 -29 69 -11 144 40 164 29 12 29 12 52 -4z m-1816 -41 c0 -7
-91 -67 -96 -62 -3 2 17 18 43 36 51 32 53 34 53 26z m-250 -40 c-7 -8 -17
-15 -23 -15 -6 0 -2 7 9 15 25 19 30 19 14 0z m-1850 -45 c0 -31 75 -250 108
-315 43 -87 46 -102 23 -108 -29 -7 -31 -5 -101 127 -32 60 -70 188 -70 237 0
32 19 79 32 79 4 0 8 -9 8 -20z m1990 6 c0 -2 -7 -7 -16 -10 -8 -3 -12 -2 -9
4 6 10 25 14 25 6z m-4640 -107 c37 -38 90 -59 150 -59 40 0 133 41 169 73
l23 22 -7 -35 c-15 -72 -95 -127 -198 -136 -55 -5 -69 -2 -117 23 -58 30 -86
66 -101 131 -5 20 -6 46 -2 57 5 18 8 18 27 -10 12 -16 37 -46 56 -66z m3825
77 c19 -14 19 -15 -5 -35 -14 -11 -52 -35 -85 -52 -33 -18 -139 -83 -235 -144
-96 -62 -202 -127 -235 -146 -33 -18 -85 -50 -115 -70 -52 -35 -133 -79 -145
-79 -3 0 -5 6 -5 14 0 21 44 54 168 126 189 110 256 152 383 240 258 179 241
170 274 146z m670 -62 c-24 -18 -83 -50 -73 -39 10 10 81 54 88 54 3 0 -4 -7
-15 -15z m-615 -36 c-14 -11 -47 -31 -75 -45 -27 -14 -70 -40 -95 -58 -25 -18
-60 -40 -79 -50 -18 -9 -77 -45 -130 -79 -53 -35 -109 -70 -126 -78 -16 -8
-52 -28 -80 -45 -133 -81 -211 -123 -227 -123 -29 0 -21 15 17 33 20 9 66 37
103 60 52 34 462 285 667 408 40 24 60 6 25 -23z m-1275 -148 c25 -77 43 -144
40 -149 -3 -6 -1 -12 5 -16 23 -14 5 -36 -90 -108 l-101 -77 -10 27 c-16 43
-39 174 -39 224 0 37 7 57 38 101 68 99 97 138 104 138 3 0 27 -63 53 -140z
m1360 112 c-33 -30 -162 -112 -300 -192 -88 -51 -173 -103 -190 -115 -39 -29
-206 -117 -211 -112 -2 2 8 10 24 18 15 7 97 57 182 110 85 53 192 117 237
143 44 26 87 53 93 61 7 8 17 15 22 15 5 0 28 12 51 28 23 15 51 32 62 39 24
14 44 17 30 5z m363 -42 c-15 -23 -28 -26 -28 -7 0 17 10 27 27 27 11 0 11 -4
1 -20z m1706 -22 c3 -7 7 -64 9 -125 5 -90 3 -113 -8 -113 -17 0 -25 22 -25
71 0 45 -5 47 -36 18 -23 -22 -44 -19 -44 7 0 8 -4 14 -10 14 -5 0 -10 -22
-10 -50 0 -36 -4 -50 -14 -50 -21 0 -26 23 -26 108 0 81 7 122 20 122 5 0 19
-19 32 -42 13 -22 28 -42 33 -42 6 -1 21 20 35 46 25 49 37 58 44 36z m-574
-48 c0 -50 0 -50 28 -44 48 10 51 12 54 46 2 22 9 34 21 36 15 3 17 -7 17
-113 0 -106 -2 -116 -17 -113 -14 2 -19 15 -21 51 l-3 47 -40 0 -39 0 0 -50
c0 -38 -4 -50 -15 -50 -12 0 -15 20 -15 120 0 100 3 120 15 120 11 0 15 -12
15 -50z m738 16 c31 -36 47 -93 36 -129 -9 -30 -54 -77 -74 -77 -9 0 -29 13
-45 30 -22 23 -29 41 -33 83 -4 49 -2 57 28 90 18 21 38 37 45 37 7 0 26 -15
43 -34z m329 -21 c22 -30 43 -51 47 -48 3 4 6 21 6 39 0 38 9 64 21 64 5 0 9
-54 9 -120 0 -70 -4 -120 -10 -120 -5 0 -29 28 -52 63 l-43 62 -5 -59 c-8 -95
-28 -82 -32 21 -4 102 0 153 11 153 4 0 26 -25 48 -55z m-5922 35 c-3 -5 -14
-10 -23 -10 -15 0 -15 2 -2 10 20 13 33 13 25 0z m4785 -5 c16 -20 4 -35 -28
-35 l-27 0 4 -85 c3 -81 2 -85 -18 -85 -20 0 -21 5 -21 84 l0 84 -35 6 c-32 6
-44 23 -28 39 13 14 140 7 153 -8z m350 -11 c0 -23 -3 -25 -29 -19 -20 4 -34
1 -45 -10 -25 -26 -19 -35 24 -35 33 0 40 -3 40 -20 0 -13 -7 -20 -19 -20 -35
0 -51 -12 -51 -36 0 -28 30 -33 50 -9 16 19 27 9 32 -25 3 -24 1 -25 -61 -28
l-64 -3 6 77 c4 42 7 94 7 116 l0 38 55 0 c52 0 55 -1 55 -26z m665 -17 c28
-50 32 -95 10 -137 -32 -62 -85 -63 -125 -3 -35 52 -33 113 5 153 43 45 78 41
110 -13z m-4075 -195 c0 -10 13 -61 30 -112 24 -79 27 -97 16 -108 -11 -11
-17 -4 -36 40 -26 60 -41 198 -21 198 6 0 11 -8 11 -18z m-1330 -12 c-8 -5
-22 -9 -30 -9 -10 0 -8 3 5 9 27 12 43 12 25 0z m-53 -16 c-3 -3 -12 -4 -19
-1 -8 3 -5 6 6 6 11 1 17 -2 13 -5z m1858 -14 c10 -11 14 -20 8 -20 -15 0 -63
-44 -63 -58 0 -7 -5 -12 -11 -12 -5 0 -7 5 -3 11 11 18 -25 -4 -115 -71 -77
-57 -103 -83 -62 -60 17 8 30 9 70 1 2 -1 -2 -7 -9 -15 -6 -8 -17 -13 -24 -10
-23 9 -160 -63 -196 -102 -19 -21 -27 -32 -17 -25 10 8 17 9 17 3 0 -12 -53
-52 -68 -52 -19 0 -23 39 -7 70 42 81 382 360 440 360 12 0 30 -9 40 -20z
m-585 -52 c5 -24 19 -73 30 -109 25 -83 25 -88 -5 -140 -27 -48 -32 -105 -14
-158 20 -56 61 -64 159 -30 l61 21 52 -49 c29 -27 73 -64 100 -83 26 -18 47
-37 47 -40 0 -4 -20 -42 -45 -83 -33 -55 -81 -110 -175 -200 -130 -126 -463
-417 -476 -417 -3 0 76 82 176 183 170 169 337 353 329 362 -2 2 -47 -36 -100
-83 -53 -48 -163 -143 -244 -212 -82 -69 -187 -159 -234 -200 -47 -42 -124
-107 -171 -145 -47 -38 -115 -95 -151 -127 -77 -67 -100 -77 -36 -15 78 75
350 330 412 387 131 120 263 247 300 290 35 39 36 41 10 22 -85 -61 -206 -159
-269 -215 -39 -35 -118 -101 -176 -147 -58 -46 -142 -116 -188 -157 -126 -112
-509 -396 -432 -321 8 8 80 70 160 138 80 68 186 162 236 209 50 47 164 154
254 236 90 83 184 170 209 194 l46 43 -64 -48 c-35 -27 -103 -84 -150 -127
-85 -78 -187 -157 -351 -274 -127 -90 -421 -275 -445 -280 -19 -4 -19 -3 -1 9
49 34 264 199 393 303 55 44 129 103 166 130 36 28 71 59 77 70 12 19 11 19
-11 -1 -27 -24 -470 -321 -637 -427 -142 -91 -154 -102 -146 -142 3 -20 -2
-58 -16 -101 -28 -87 -50 -178 -45 -183 3 -2 19 2 37 10 18 7 78 25 133 40 55
15 138 37 185 49 47 13 133 40 192 62 59 21 112 38 118 38 16 0 334 120 372
141 24 12 45 11 54 -3 4 -6 3 -8 -3 -5 -6 4 -13 -2 -16 -12 -2 -11 -15 -21
-28 -24 -14 -2 -7 -5 19 -6 23 0 42 3 42 9 0 5 7 7 15 4 8 -3 29 -1 46 5 18 6
34 9 36 7 2 -2 -43 -20 -100 -39 l-105 -35 -6 29 c-5 27 -8 28 -26 17 -13 -8
-20 -24 -20 -44 0 -29 -3 -32 -82 -59 -46 -15 -87 -31 -93 -35 -9 -6 -24 -11
-80 -26 -5 -1 -44 -14 -85 -29 -41 -14 -122 -40 -180 -56 -58 -17 -127 -37
-155 -45 -27 -8 -126 -30 -219 -49 -214 -43 -214 -44 -145 91 63 125 85 196
105 339 24 184 9 348 -51 530 -15 44 -29 87 -31 95 -23 93 -23 94 -4 107 12 8
17 20 13 30 -4 10 -2 14 6 12 7 -3 22 -27 33 -54 11 -28 26 -64 34 -80 13 -32
24 -71 49 -185 9 -37 15 -116 15 -182 0 -92 3 -118 13 -118 25 0 335 275 323
287 -2 2 -56 -29 -121 -67 -148 -89 -175 -103 -175 -91 0 12 144 115 315 227
124 81 335 232 335 240 0 6 7 10 -140 -81 -63 -39 -154 -93 -203 -121 -48 -27
-123 -75 -168 -106 -44 -32 -78 -54 -75 -49 32 51 217 205 356 296 68 43 310
224 335 248 16 17 -61 -31 -222 -138 -213 -140 -273 -176 -273 -164 0 6 12 21
27 33 15 11 82 66 149 121 67 55 188 152 270 215 81 63 164 130 183 148 l36
34 -40 -22 c-22 -11 -74 -46 -115 -77 -41 -31 -111 -78 -155 -105 -44 -26
-132 -85 -195 -129 -63 -44 -146 -101 -185 -127 -38 -25 -87 -59 -108 -75 -21
-16 -40 -27 -43 -25 -10 10 236 211 421 343 61 43 162 120 225 170 122 96 207
163 298 233 31 23 51 42 45 42 -14 0 -203 -115 -368 -224 -113 -75 -220 -143
-287 -183 -60 -35 198 174 497 403 97 74 276 172 317 174 4 0 12 -19 18 -42z
m-310 12 c0 -5 -5 -10 -11 -10 -5 0 -7 5 -4 10 3 6 8 10 11 10 2 0 4 -4 4 -10z
m2244 -47 c-16 -67 -69 -205 -107 -278 -64 -124 -183 -236 -368 -346 -158 -95
-407 -222 -527 -270 -42 -17 -135 -59 -207 -94 -71 -36 -131 -63 -132 -61 -2
2 60 64 138 137 78 74 150 148 160 164 18 28 19 29 19 7 0 -14 -20 -46 -51
-80 -48 -55 -49 -57 -26 -60 46 -6 496 234 696 371 156 106 253 230 326 416
30 74 59 121 76 121 5 0 6 -12 3 -27z m-892 -89 c-30 -20 -56 -33 -59 -31 -2
3 8 13 24 23 15 9 37 23 48 30 47 30 35 11 -13 -22z m91 -59 c-24 -17 -73 -37
-73 -30 0 6 72 44 85 45 5 0 0 -7 -12 -15z m-763 -9 c0 -3 -4 -8 -10 -11 -5
-3 -10 -1 -10 4 0 6 5 11 10 11 6 0 10 -2 10 -4z m-2765 -33 c274 -53 546
-223 717 -448 76 -101 181 -316 206 -425 48 -207 47 -403 -3 -579 -26 -91
-136 -319 -170 -351 -14 -13 -43 -20 -102 -25 -78 -7 -83 -6 -83 12 0 27 -29
56 -125 129 -163 122 -288 204 -312 204 -5 0 -40 -20 -78 -45 -38 -25 -80 -48
-94 -52 -58 -14 -109 -44 -115 -65 -3 -13 -6 -129 -6 -259 0 -231 0 -236 25
-285 14 -27 36 -56 48 -65 30 -22 223 -101 317 -130 104 -32 56 -37 -103 -10
-67 12 -192 25 -277 30 -309 19 -552 91 -763 227 -154 100 -338 327 -417 516
-51 122 -66 185 -81 329 -34 348 87 683 350 972 244 266 675 395 1066 320z
m5203 -9 c-3 -3 -28 -12 -54 -20 -27 -8 -44 -10 -39 -5 6 5 26 14 45 19 42 12
55 14 48 6z m1557 -19 c39 -8 102 -22 140 -30 103 -20 285 -88 394 -146 218
-115 409 -306 363 -362 -6 -7 -12 -25 -14 -42 l-3 -29 -52 46 c-29 26 -83 67
-120 91 -86 56 -314 171 -379 191 -299 91 -396 108 -634 108 -167 1 -439 -21
-525 -42 -22 -5 -105 -21 -185 -36 -261 -47 -389 -81 -770 -207 -191 -64 -496
-179 -675 -257 -196 -84 -433 -188 -490 -214 -33 -16 -109 -51 -170 -78 -60
-28 -130 -61 -155 -73 -72 -38 -297 -145 -400 -190 -52 -24 -169 -77 -260
-119 -242 -113 -317 -145 -495 -211 -49 -19 -144 -55 -210 -80 -511 -199 -918
-314 -1395 -393 -155 -25 -184 -27 -481 -27 -347 0 -366 3 -334 51 8 13 15 30
15 39 0 8 5 15 10 15 6 0 10 -6 10 -14 0 -23 25 -36 78 -43 l51 -6 6 37 c13
65 6 69 -89 61 -81 -6 -83 -6 -89 17 -14 50 -12 51 71 44 172 -14 460 -18 552
-7 52 7 138 16 190 22 366 39 944 208 1565 458 143 58 604 260 627 275 13 8
80 40 148 70 69 30 199 89 290 131 91 42 199 92 240 110 41 18 141 65 222 104
81 39 150 71 154 71 3 0 58 24 123 53 229 105 543 230 891 353 319 113 878
238 1221 274 130 13 481 4 564 -15z m-1543 -22 c19 -23 19 -50 0 -58 -8 -3
-15 -4 -16 -3 -1 2 -7 13 -13 25 -12 22 -8 53 7 53 4 0 14 -8 22 -17z m168 -3
c12 -8 11 -10 -7 -10 -13 0 -23 5 -23 10 0 13 11 13 30 0z m-1984 -15 c10 -8
14 -15 7 -15 -19 0 -43 11 -43 21 0 13 14 11 36 -6z m1864 -25 c0 -5 -5 -10
-11 -10 -5 0 -7 5 -4 10 3 6 8 10 11 10 2 0 4 -4 4 -10z m-2324 -45 c46 -16
59 -17 115 -6 35 7 79 19 97 27 30 12 37 12 73 -6 21 -11 39 -24 39 -29 0 -20
-106 -55 -170 -55 -56 -1 -76 4 -142 37 -42 21 -85 48 -95 60 -18 21 -18 21 7
6 14 -9 48 -24 76 -34z m-51 -99 c54 -26 73 -40 69 -51 -9 -23 -35 -18 -100
20 -66 40 -134 106 -134 130 0 12 13 5 45 -23 25 -22 78 -56 120 -76z m312
-108 c27 -26 30 -69 7 -123 -10 -26 -18 -34 -23 -26 -5 7 -17 11 -27 9 -15 -2
-20 4 -22 26 -2 16 -15 44 -28 61 -41 54 -32 75 30 75 27 0 47 -7 63 -22z
m1373 18 c0 -3 -4 -8 -10 -11 -5 -3 -10 -1 -10 4 0 6 5 11 10 11 6 0 10 -2 10
-4z m2005 -5 c155 -7 187 -11 232 -31 59 -25 126 -91 151 -148 20 -48 29 -278
12 -340 -14 -55 -73 -119 -142 -158 -50 -27 -59 -29 -153 -27 -55 1 -122 7
-149 12 l-48 9 4 -162 c3 -88 8 -168 11 -176 4 -8 21 -24 37 -35 41 -28 38
-45 -7 -45 -43 -1 -227 -26 -260 -36 -32 -9 -29 10 9 58 l33 40 4 226 3 226
-33 26 -32 27 29 14 29 14 3 217 2 217 -30 34 c-16 19 -27 37 -23 41 8 8 86 7
318 -3z m-445 -24 c0 -7 -14 -26 -30 -42 -17 -16 -35 -45 -40 -64 -5 -20 -10
-125 -10 -234 l0 -197 27 -11 26 -10 -30 -32 -31 -32 6 -209 5 -209 39 -43
c43 -46 38 -54 -30 -54 -31 0 -163 -27 -223 -46 -28 -8 -29 22 -1 62 26 38 26
43 30 241 3 111 2 213 -2 227 -3 14 -17 28 -33 33 l-26 9 31 23 32 22 0 223 0
222 -30 29 c-45 43 -39 52 43 60 39 4 101 15 137 25 80 22 110 24 110 7z
m-3230 -100 c0 -7 -4 -17 -10 -23 -6 -6 -6 -21 0 -42 8 -30 5 -38 -34 -90 -79
-104 -173 -179 -177 -142 -1 6 -2 16 -3 23 -1 6 7 23 19 37 12 14 29 36 38 49
9 13 36 45 60 70 24 25 47 56 51 69 4 12 11 22 16 22 4 0 10 9 13 20 6 22 27
28 27 7z m-1952 -29 c10 -12 10 -18 1 -24 -7 -4 -9 -3 -5 4 3 6 2 13 -4 17 -5
3 -10 11 -10 17 0 6 1 9 3 7 1 -2 8 -11 15 -21z m4610 -55 c36 -27 70 -77 83
-126 6 -21 11 -98 12 -171 2 -128 1 -132 -27 -184 -27 -48 -45 -68 -115 -125
-27 -22 -25 -27 40 -164 59 -123 119 -193 167 -193 107 0 -31 -119 -143 -123
-63 -3 -84 22 -182 218 -47 94 -88 170 -91 170 -35 -2 -92 -32 -101 -52 -14
-30 -14 -265 -1 -315 6 -22 23 -46 40 -58 17 -12 30 -25 30 -30 0 -5 -19 -14
-42 -20 -24 -6 -90 -27 -148 -46 -58 -20 -115 -38 -127 -41 -33 -8 -29 15 8
53 42 44 48 81 49 302 l0 193 -35 15 c-40 16 -38 27 6 49 l29 16 -1 192 c0
240 -4 266 -46 292 -35 22 -43 45 -17 45 10 0 96 27 193 59 222 75 201 70 304
67 69 -2 93 -6 115 -23z m-2388 7 c13 -8 13 -10 -2 -10 -9 0 -20 5 -23 10 -8
13 5 13 25 0z m-27 -55 c-3 -9 -8 -14 -10 -11 -3 3 -2 9 2 15 9 16 15 13 8 -4z
m1711 -180 c4 -55 9 -130 12 -167 5 -59 4 -68 -11 -68 -9 0 -28 14 -42 30 -42
51 -56 54 -133 29 l-70 -22 0 -158 c0 -161 8 -209 35 -209 21 0 19 -7 -9 -40
-23 -28 -24 -31 -22 -241 l1 -213 43 -29 c24 -16 40 -33 35 -37 -10 -11 -271
-120 -300 -127 -32 -7 -29 12 7 54 l30 34 0 234 0 235 -25 6 c-32 8 -32 15 5
42 l30 23 0 169 c0 94 -3 170 -6 170 -21 0 -169 -88 -187 -111 -59 -77 -70
-89 -82 -89 -11 0 -11 7 -2 38 6 20 11 97 11 170 0 72 4 132 9 132 4 0 18 -7
30 -15 20 -13 29 -11 102 19 436 184 439 185 479 226 28 27 43 36 47 27 4 -6
10 -57 13 -112z m2748 17 c45 -41 78 -92 78 -122 0 -21 -20 -9 -35 21 -21 39
-125 143 -164 164 -17 8 -31 20 -31 25 0 17 98 -40 152 -88z m-192 32 c115
-55 260 -171 260 -209 0 -24 -13 -18 -60 30 -25 25 -63 58 -85 73 -22 15 -56
39 -75 54 -19 14 -70 43 -112 63 -43 20 -78 39 -78 41 0 11 62 -11 150 -52z
m3 -99 c40 -19 110 -60 157 -92 70 -48 86 -64 88 -88 l4 -29 -57 48 c-59 51
-238 159 -292 177 -18 6 -33 15 -33 21 0 15 53 0 133 -37z m-91 -54 c84 -29
296 -153 325 -190 7 -9 13 -29 13 -46 l0 -30 -37 41 c-45 48 -185 141 -294
196 -105 52 -108 64 -7 29z m64 -125 c139 -67 274 -160 274 -189 0 -10 -33 7
-97 50 -54 36 -154 95 -223 130 -101 53 -117 64 -85 60 22 -4 81 -26 131 -51z
m-3438 -112 l-32 -58 -4 -183 c-3 -100 -1 -194 2 -208 4 -17 17 -30 36 -37 38
-13 38 -36 1 -49 -37 -13 -40 -39 -36 -295 3 -196 8 -224 45 -244 27 -15 25
-27 -6 -34 -14 -4 -65 -26 -114 -50 l-88 -44 -7 25 c-10 42 -303 543 -317 543
-10 0 -14 -182 -8 -410 l5 -196 35 -31 c23 -21 32 -35 25 -41 -14 -13 -262
-112 -280 -112 -23 0 -18 21 13 53 l27 28 3 229 3 229 -32 17 -33 16 32 27 32
26 0 228 c0 245 3 229 -54 271 -18 12 -15 15 40 31 32 9 84 30 114 46 l55 30
20 -26 c11 -14 50 -74 86 -133 164 -264 215 -342 222 -342 4 0 7 130 7 289 l0
290 -30 21 c-16 12 -30 25 -30 29 0 4 17 13 38 19 21 7 88 36 148 65 60 30
110 51 112 46 2 -4 -12 -33 -30 -65z m3532 -31 c160 -78 211 -113 165 -113
-31 0 -377 179 -369 191 3 5 9 9 14 9 5 0 91 -39 190 -87z m-105 -45 c39 -17
93 -43 120 -58 28 -15 76 -33 108 -39 56 -12 57 -13 57 -47 0 -19 -3 -34 -6
-34 -3 0 -24 13 -47 29 -23 15 -60 34 -82 41 -22 7 -60 24 -85 39 -25 14 -72
40 -105 56 -33 17 -67 36 -75 44 -13 13 -11 13 15 7 17 -4 62 -21 100 -38z
m-4885 -82 c0 -2 -7 -6 -15 -10 -8 -3 -15 -1 -15 4 0 6 7 10 15 10 8 0 15 -2
15 -4z m-50 -20 c0 -2 -7 -7 -16 -10 -8 -3 -12 -2 -9 4 6 10 25 14 25 6z
m4993 -32 c-3 -15 -20 -15 -33 1 -11 13 -9 15 11 12 13 -2 23 -8 22 -13z m124
-32 c-9 -2 -25 2 -36 7 -11 6 -30 11 -43 11 -17 0 -19 3 -9 9 9 6 31 3 59 -8
24 -9 37 -17 29 -19z m-255 -1 c76 -32 260 -178 313 -246 15 -20 29 -34 32
-32 11 12 -35 78 -104 148 -41 42 -71 79 -66 82 13 8 104 -54 136 -92 14 -17
31 -31 37 -31 7 0 10 -22 9 -62 -1 -35 2 -75 6 -90 11 -42 -5 -33 -55 30 -42
54 -122 130 -218 207 -24 19 -40 35 -35 35 4 1 -21 16 -57 35 -70 37 -69 47 2
16z m341 -51 c13 0 17 -9 17 -41 0 -36 -2 -40 -15 -29 -8 7 -15 17 -15 23 0 6
-12 22 -27 35 l-28 23 25 -5 c14 -3 33 -6 43 -6z m-343 -50 c0 -5 6 -10 14
-10 15 0 152 -87 201 -127 89 -74 155 -146 155 -170 0 -23 -6 -20 -65 39 -35
35 -110 98 -166 139 -125 90 -179 139 -156 139 10 0 17 -4 17 -10z m-59 -70
c44 -13 91 -41 214 -125 144 -99 215 -163 215 -193 0 -12 -2 -22 -4 -22 -2 0
-32 28 -68 63 -83 79 -245 200 -345 255 -43 24 -69 41 -58 37 11 -4 32 -11 46
-15z m-406 -60 c209 -22 313 -45 427 -95 60 -26 125 -60 145 -76 21 -15 67
-48 103 -73 70 -48 150 -137 150 -167 0 -22 -4 -23 -32 -8 -18 9 -24 8 -35 -7
-18 -24 -17 -30 12 -56 59 -55 75 -210 30 -297 -51 -102 -170 -178 -330 -211
-53 -11 -107 -20 -118 -20 -19 0 -77 45 -77 60 0 4 46 10 103 12 168 9 312 79
365 178 20 38 23 56 20 116 -3 66 -6 75 -46 128 -91 120 -294 235 -520 295
-110 30 -225 41 -411 41 -332 1 -539 -30 -996 -146 -129 -33 -416 -127 -625
-204 -91 -34 -194 -72 -230 -85 -36 -12 -119 -46 -185 -75 -66 -29 -151 -65
-190 -80 -168 -67 -639 -274 -875 -385 -74 -35 -159 -73 -188 -84 -29 -12 -72
-31 -95 -43 -41 -20 -262 -114 -532 -223 -277 -113 -611 -231 -1000 -353 -169
-54 -472 -125 -655 -154 -201 -32 -553 -32 -736 1 -210 36 -464 141 -560 229
-26 24 -32 38 -38 91 -4 35 -3 68 2 73 5 5 28 1 56 -11 25 -11 86 -32 134 -47
48 -14 120 -42 160 -60 40 -19 78 -34 85 -34 7 0 53 -14 103 -30 168 -58 383
-74 604 -45 279 35 527 90 805 177 289 90 505 161 605 199 58 22 137 52 175
67 132 49 440 174 487 198 26 13 74 34 105 46 32 11 67 27 78 34 11 6 81 38
155 69 74 31 178 76 230 100 199 91 277 125 343 150 37 14 125 52 195 85 71
33 132 60 136 60 4 0 33 12 64 26 31 15 82 37 112 49 30 13 102 43 160 68 58
25 129 54 158 66 28 12 76 30 105 42 28 12 79 30 112 41 33 11 101 35 150 54
255 94 759 234 980 272 175 30 286 43 453 51 170 8 216 7 367 -9z m-3904 -11
c51 -17 106 -76 130 -139 15 -38 23 -87 27 -160 4 -89 8 -107 24 -119 19 -13
19 -13 0 -35 -18 -19 -20 -40 -24 -201 -4 -147 -9 -187 -23 -215 -10 -19 -23
-39 -30 -45 -6 -5 -32 -39 -57 -75 -60 -85 -80 -103 -158 -139 -156 -73 -278
-57 -357 47 -42 55 -53 98 -53 202 0 125 -7 156 -38 170 l-27 12 32 26 32 27
3 150 c3 147 4 152 36 217 64 131 165 225 285 269 59 21 148 24 198 8z m-2861
-34 c0 -8 -93 -52 -125 -59 -20 -4 -8 6 35 29 61 32 90 42 90 30z m120 -4 c0
-11 -195 -108 -235 -117 -47 -11 -26 3 102 66 124 62 133 65 133 51z m30 -46
c0 -14 -115 -77 -183 -100 -118 -39 -115 -25 4 23 57 23 118 51 134 61 31 20
45 25 45 16z m5 -55 c-32 -34 -114 -85 -122 -77 -2 3 5 10 16 17 12 6 44 31
72 56 56 49 80 52 34 4z m-1625 9 c0 -5 -4 -9 -8 -9 -5 0 -9 7 -9 15 0 8 4 12
9 9 4 -3 8 -9 8 -15z m1720 -17 c0 -8 -92 -66 -125 -78 -41 -15 7 27 64 56 65
34 61 32 61 22z m6497 -138 c69 -6 98 -26 64 -43 -11 -6 -29 -11 -40 -11 -12
0 -21 -4 -21 -9 0 -8 -12 -12 -70 -27 -8 -2 -35 -10 -59 -19 -46 -17 -134 -25
-138 -12 -2 4 -3 27 -3 52 0 32 6 50 21 64 23 21 59 22 246 5z m-4719 -36 c31
-8 59 -25 88 -54 54 -54 75 -121 79 -255 4 -104 7 -119 31 -119 20 0 17 -24
-6 -45 -18 -16 -20 -31 -20 -144 0 -139 -13 -208 -56 -296 -62 -126 -208 -224
-348 -233 -67 -4 -79 -2 -125 24 -54 29 -106 90 -132 154 -9 23 -14 73 -14
148 l0 112 -27 13 c-36 15 -35 28 2 55 l30 23 0 117 c0 181 30 279 111 367
105 114 257 166 387 133z m4952 8 c0 -2 -20 -16 -45 -29 -29 -17 -45 -21 -45
-13 0 7 15 20 33 29 31 15 57 21 57 13z m-24 -115 c-8 -12 -46 -21 -46 -11 0
9 18 18 38 19 7 1 11 -3 8 -8z m-5529 -48 c2 -6 -11 -28 -29 -48 l-32 -37 -7
-162 c-4 -88 -8 -191 -8 -227 l-1 -67 38 -7 37 -7 -36 -19 -37 -18 3 -227 2
-228 29 -23 c16 -13 32 -23 37 -23 4 0 7 -6 7 -14 0 -9 -19 -19 -52 -26 -152
-33 -234 -50 -245 -50 -18 0 -16 27 1 33 8 3 22 20 31 38 14 26 18 78 22 303
4 175 2 267 -4 261 -6 -5 -42 -93 -82 -195 -80 -205 -74 -190 -126 -315 -21
-49 -40 -107 -43 -127 -2 -21 -7 -38 -11 -38 -3 0 -14 22 -24 49 -9 28 -53
127 -98 221 -44 94 -89 197 -101 228 -11 31 -24 61 -28 65 -9 10 -20 -195 -20
-371 l0 -135 40 -37 c22 -20 40 -42 40 -48 0 -9 -45 -12 -155 -12 -103 0 -155
4 -155 11 0 6 16 25 35 43 l35 33 0 207 0 206 -25 10 c-14 5 -25 16 -25 23 0
8 11 19 25 25 l25 12 0 218 0 218 -34 41 -35 40 107 6 c59 4 121 9 138 13 l30
6 0 -54 c0 -46 12 -79 96 -258 53 -113 99 -215 103 -227 3 -13 10 -23 13 -23
4 0 20 28 34 63 132 308 182 431 196 484 15 58 15 63 -1 81 -17 19 -16 19 30
25 27 4 89 22 138 41 92 36 115 40 122 19z m5145 -21 c-13 -4 3 -24 28 -35 8
-4 -1 -4 -20 -1 -26 4 -31 3 -20 -5 13 -9 12 -11 -5 -11 -12 0 -25 -4 -31 -10
-16 -16 -128 -24 -152 -11 -33 18 -27 28 26 40 50 12 58 15 82 24 24 9 74 20
83 19 4 -1 7 4 8 11 0 8 3 7 6 -2 3 -8 1 -17 -5 -19z m423 -24 c-18 -11 -94
-41 -196 -77 -26 -10 -57 -24 -70 -33 -25 -16 -109 -22 -109 -7 0 5 -7 6 -16
2 -14 -5 -14 -3 -3 15 13 21 43 36 67 33 6 -1 12 3 12 9 0 5 17 10 38 10 20 0
84 13 142 29 58 16 116 30 130 30 23 0 24 0 5 -11z m-785 -91 c74 -25 169 -60
210 -77 41 -17 88 -36 104 -42 57 -21 206 -98 258 -132 171 -113 214 -152 280
-251 47 -70 56 -119 37 -197 l-13 -53 -7 50 c-4 28 -8 78 -8 111 -1 66 -20 99
-43 76 -9 -9 -8 -20 4 -44 8 -18 18 -49 22 -68 6 -33 5 -32 -20 15 -33 62 -92
125 -166 176 -31 21 -59 39 -62 39 -3 0 -49 25 -103 57 -262 151 -602 263
-800 263 -160 0 -458 -148 -500 -248 -11 -26 -16 -77 -18 -166 -2 -132 -6
-145 -46 -146 -24 0 -31 42 -24 129 11 117 22 158 55 193 17 17 30 34 30 38 0
4 43 38 95 76 55 41 94 76 95 87 0 26 -10 21 -63 -30 -62 -60 -46 -28 24 51
41 45 71 67 127 93 96 43 152 53 287 48 99 -3 124 -8 245 -48z m-7345 13 c-3
-5 -1 -10 5 -10 6 0 8 -5 5 -10 -4 -6 -11 -8 -16 -5 -12 8 -11 35 2 35 5 0 7
-4 4 -10z m70 -8 c-3 -3 -11 0 -18 7 -9 10 -8 11 6 5 10 -3 15 -9 12 -12z
m8079 -1 c10 -15 -257 -111 -309 -111 -84 0 33 59 188 95 121 28 114 27 121
16z m-7017 -37 c21 -8 47 -19 58 -24 11 -5 29 -10 39 -12 11 -2 18 -7 15 -13
-12 -28 -198 20 -239 62 -13 14 -10 15 37 9 28 -4 69 -13 90 -22z m6537 7 c4
-5 -3 -7 -14 -4 -23 6 -26 13 -6 13 8 0 17 -4 20 -9z m71 -21 l20 -9 -20 0
c-11 0 -29 4 -40 9 l-20 9 20 0 c11 0 29 -4 40 -9z m450 -38 c-19 -17 -194
-72 -227 -72 -18 1 -46 7 -63 14 -30 13 -30 13 31 20 34 4 92 16 130 26 74 19
144 25 129 12z m-2165 -106 c0 -32 174 -402 211 -448 16 -20 29 -41 29 -46 0
-5 -19 -17 -42 -27 -24 -10 -67 -29 -97 -42 -30 -13 -56 -21 -59 -18 -3 3 5
19 17 36 23 31 23 32 6 70 -10 21 -23 39 -29 39 -6 0 -42 -12 -81 -25 -38 -14
-71 -25 -72 -25 -7 0 -32 -61 -38 -92 -6 -31 -4 -38 14 -47 12 -7 21 -15 21
-20 0 -7 -99 -57 -162 -80 -24 -9 -28 -8 -28 7 0 9 8 31 19 48 19 31 25 53 92
343 52 227 55 253 35 270 -22 19 -20 31 7 31 12 0 47 11 77 24 71 31 80 31 80
2z m1060 -9 c0 -34 -19 -47 -67 -47 l-43 0 0 -40 0 -40 46 0 c38 0 45 -3 42
-17 -2 -12 -18 -21 -46 -27 -42 -9 -43 -10 -40 -45 3 -36 3 -36 50 -35 39 0
49 -3 54 -19 9 -27 -6 -37 -62 -43 -27 -3 -59 -7 -71 -10 l-23 -4 0 163 0 164
53 10 c90 18 107 16 107 -10z m78 11 c8 -8 12 -54 12 -140 l0 -128 55 0 55 0
0 -32 0 -33 -77 5 -78 5 -2 168 c-1 169 3 187 35 155z m990 3 c8 -5 -15 -13
-63 -21 -76 -13 -106 -7 -91 19 8 13 135 15 154 2z m-791 -29 c8 -5 13 -58 15
-165 l3 -157 -22 0 c-23 0 -23 1 -23 165 0 91 3 165 8 165 4 0 12 -4 19 -8z
m-495 -112 c4 -226 5 -215 -19 -218 -22 -3 -23 0 -23 62 0 37 -4 66 -10 66 -5
0 -19 -18 -30 -40 -11 -22 -27 -40 -34 -40 -8 0 -28 16 -45 37 l-30 36 2 -79
c2 -73 0 -79 -18 -79 -18 0 -21 10 -29 122 -13 188 17 235 78 121 17 -32 33
-58 36 -58 3 0 14 25 24 54 18 54 68 126 87 126 5 0 10 -49 11 -110z m-5759
93 c-7 -2 -19 -2 -25 0 -7 3 -2 5 12 5 14 0 19 -2 13 -5z m6462 -37 c31 -8 41
-17 43 -35 4 -22 2 -23 -35 -17 -21 3 -48 9 -60 12 -21 6 -23 3 -23 -34 0 -39
1 -40 40 -47 36 -6 40 -9 40 -37 0 -31 0 -31 -45 -25 -42 6 -45 5 -45 -16 0
-33 11 -43 54 -53 31 -7 41 -15 47 -37 9 -33 5 -33 -81 -9 l-65 19 -3 54 c-2
30 -1 99 3 155 l7 101 41 -10 c23 -5 60 -15 82 -21z m-6453 13 c40 -6 84 -13
98 -16 46 -10 -8 -21 -80 -16 -49 2 -60 1 -45 -7 17 -9 15 -10 -10 -6 -16 3
-87 10 -157 17 -95 9 -128 16 -128 26 0 17 214 18 322 2z m-132 -69 c151 -16
268 -37 355 -64 25 -8 -266 5 -320 14 -111 19 -200 42 -215 56 -8 8 -12 14
-10 14 3 0 88 -9 190 -20z m4650 -15 c0 -2 -8 -21 -18 -42 -17 -35 -18 -60
-13 -286 6 -248 6 -248 30 -266 l24 -19 -92 -46 c-50 -25 -94 -46 -96 -46 -12
0 -3 49 10 60 12 10 15 39 15 139 0 69 -4 132 -8 138 -5 8 -31 -35 -71 -117
-35 -72 -66 -130 -69 -130 -4 0 -42 32 -85 72 l-79 71 6 -64 c3 -35 8 -104 12
-153 5 -75 9 -89 25 -93 31 -8 22 -23 -26 -44 -41 -17 -130 -58 -147 -67 -15
-7 -8 27 13 63 20 34 21 44 15 228 -10 292 -11 301 -49 319 l-32 16 45 18 c24
10 64 28 87 41 24 12 43 19 43 14 0 -11 132 -196 143 -202 8 -4 146 295 147
317 0 26 170 105 170 79z m2123 -6 c27 -14 37 -28 37 -51 0 -19 -34 -25 -45
-8 -8 13 -42 13 -50 -1 -4 -5 15 -34 42 -62 27 -29 53 -65 57 -81 12 -49 -40
-104 -88 -92 -35 9 -76 52 -76 81 0 32 10 32 40 0 29 -31 56 -32 65 -4 5 16
-2 31 -33 63 -66 69 -78 110 -42 146 22 22 60 26 93 9z m-6792 -52 c168 -35
379 -88 379 -96 0 -8 -167 4 -250 19 -99 17 -252 59 -277 76 -30 19 -30 38 0
31 12 -2 79 -16 148 -30z m129 -119 c249 -61 300 -77 247 -78 -58 0 -296 41
-417 73 -119 31 -125 34 -128 60 -3 26 -2 27 25 16 15 -6 138 -38 273 -71z
m7272 20 c17 -20 18 -23 4 -26 -9 -2 -16 -9 -16 -17 0 -26 -30 -26 -40 1 -13
34 -13 51 3 57 22 10 29 7 49 -15z m33 12 c3 -5 1 -10 -4 -10 -6 0 -11 5 -11
10 0 6 2 10 4 10 3 0 8 -4 11 -10z m-7300 -124 c193 -49 283 -75 269 -80 -12
-3 -67 0 -123 9 -113 17 -115 17 -316 69 -77 20 -141 36 -142 36 -2 0 -3 9 -3
20 0 11 6 20 13 19 6 0 143 -33 302 -73z m7060 -28 c15 -28 33 -80 41 -117 14
-67 8 -156 -26 -366 -5 -33 -12 -81 -15 -107 -9 -67 -21 -67 -28 -1 -3 31 -13
63 -21 71 -14 14 -16 13 -25 -9 -7 -19 -3 -35 21 -77 26 -45 29 -60 23 -97 -3
-25 -10 -47 -14 -49 -4 -3 -30 42 -59 99 -37 76 -69 123 -117 173 -69 74 -186
161 -257 191 -299 129 -396 154 -603 155 -204 0 -317 -34 -423 -129 -55 -50
-65 -45 -37 21 8 19 12 41 8 49 -8 22 41 91 85 119 83 55 256 96 402 96 169 0
380 -50 546 -130 151 -73 423 -281 475 -365 36 -57 19 -2 -22 73 l-41 74 11
67 c7 36 17 91 23 122 5 32 9 91 6 132 -4 87 4 87 47 5z m-7279 -3 c34 -8 114
-30 177 -49 64 -20 146 -42 182 -51 66 -15 131 -42 122 -51 -6 -6 -164 25
-394 78 -172 39 -183 43 -183 65 0 27 11 28 96 8z m4042 -117 c5 -26 6 -51 3
-56 -10 -15 -49 -24 -56 -12 -10 16 -57 12 -120 -13 l-60 -23 -3 -67 c-2 -37
0 -67 2 -67 3 0 37 14 76 31 39 18 73 29 76 26 3 -3 9 -22 14 -42 11 -48 -5
-64 -99 -99 l-71 -28 0 -79 c0 -45 4 -79 10 -79 5 0 39 12 75 26 47 19 82 42
125 85 32 33 63 59 67 59 5 0 6 -30 2 -67 -5 -38 -8 -78 -8 -89 -1 -17 -21
-30 -108 -67 -60 -25 -132 -55 -161 -67 -30 -11 -71 -30 -92 -43 -21 -12 -42
-18 -46 -14 -4 4 -1 32 6 63 19 77 -1 504 -25 540 -8 13 -15 25 -15 27 0 3 19
9 43 15 23 6 110 40 192 75 l150 64 7 -26 c4 -14 12 -47 16 -73z m-4018 22
c362 -98 489 -139 434 -140 -28 0 -295 53 -434 88 -110 27 -115 29 -118 55 -4
31 -11 31 118 -3z m15 -95 c66 -20 167 -49 225 -65 130 -35 167 -51 147 -62
-23 -13 -218 29 -417 89 -83 24 -100 35 -100 61 0 18 13 16 145 -23z m3499
-37 c-4 -7 -16 -24 -26 -38 -17 -24 -17 -40 -7 -285 9 -197 15 -264 26 -276
13 -15 9 -19 -30 -38 -24 -11 -48 -21 -53 -21 -5 0 -20 19 -34 41 -28 45 -201
219 -219 219 -8 0 -10 -33 -6 -117 9 -175 13 -201 37 -214 11 -6 16 -14 12
-18 -15 -13 -186 -63 -192 -56 -3 3 2 21 13 40 16 32 18 51 11 212 -11 299
-15 329 -44 342 -32 15 -25 21 56 47 l67 22 117 -114 c64 -63 120 -114 125
-114 4 0 4 58 -2 129 -8 99 -14 134 -27 148 -10 11 -18 22 -18 25 0 3 39 18
88 33 48 15 91 31 97 36 13 13 17 11 9 -3z m-3507 -52 c59 -18 142 -41 183
-51 41 -9 84 -23 95 -30 11 -7 46 -20 77 -29 31 -9 59 -20 62 -25 8 -12 -124
14 -282 55 -196 51 -266 76 -270 97 -5 24 10 22 135 -17z m5816 -103 c2 -59 7
-77 37 -127 55 -91 124 -162 188 -193 l57 -28 -37 -3 c-48 -4 -96 19 -160 77
-100 89 -162 222 -137 288 11 30 40 66 46 59 3 -2 5 -35 6 -73z m666 55 c36
-21 64 -76 65 -125 1 -58 -26 -83 -93 -83 -47 0 -59 6 -155 75 -33 24 -59 35
-83 35 -33 0 -35 -1 -28 -27 3 -15 12 -31 18 -35 9 -6 9 -8 1 -8 -6 0 -17 7
-24 15 -17 21 -30 9 -30 -27 0 -33 21 -84 48 -115 9 -10 22 -27 27 -37 6 -10
37 -27 70 -38 156 -50 319 -61 480 -33 117 21 177 52 196 103 5 12 13 22 19
22 13 0 23 -44 16 -67 -8 -24 -100 -80 -162 -99 -89 -27 -272 -39 -393 -25
-118 12 -254 44 -259 60 -2 5 -16 26 -32 46 -45 57 -64 115 -56 178 9 72 37
114 90 138 68 30 124 13 228 -67 31 -24 61 -44 67 -44 22 0 10 57 -21 101 -18
24 -36 46 -40 47 -5 2 -8 10 -8 17 0 16 28 13 59 -7z m-3613 -140 c-19 -26
-21 -150 -7 -394 9 -146 10 -152 37 -179 32 -32 25 -39 -46 -50 -25 -3 -64
-14 -88 -22 -23 -9 -45 -13 -48 -10 -4 3 3 21 14 39 20 33 21 43 15 283 -5
233 -7 252 -26 272 -11 13 -19 24 -16 26 7 7 174 63 178 61 1 -2 -4 -13 -13
-26z m-262 -105 c12 -74 8 -89 -29 -118 l-35 -26 -32 26 c-27 23 -38 26 -72
21 -148 -24 -226 -186 -150 -315 50 -85 194 -94 252 -15 l19 27 47 -33 46 -34
-37 -38 c-50 -52 -89 -75 -145 -87 -159 -36 -343 110 -341 269 0 78 47 175
115 243 68 68 114 88 216 98 46 4 86 10 90 13 3 3 15 6 27 6 18 0 24 -7 29
-37z m3674 19 c2 -7 -3 -12 -12 -12 -9 0 -16 7 -16 16 0 17 22 14 28 -4z m110
-58 c42 -21 40 -23 -8 -11 -22 6 -40 15 -40 19 0 12 13 10 48 -8z m-421 -230
c-3 -3 -12 -4 -19 -1 -8 3 -5 6 6 6 11 1 17 -2 13 -5z m-4758 -8 c-2 -2 -17
-6 -34 -10 -22 -5 -26 -4 -15 4 14 9 59 15 49 6z m5415 -54 c3 -5 -1 -9 -9 -9
-8 0 -15 4 -15 9 0 4 4 8 9 8 6 0 12 -4 15 -8z m86 -1 c0 -5 -16 -8 -35 -8
-19 1 -35 5 -35 9 0 4 16 8 35 8 19 0 35 -4 35 -9z m-130 -11 c0 -5 -8 -10
-17 -10 -15 0 -16 2 -3 10 19 12 20 12 20 0z"/>
<path d="M8130 7193 c-8 -3 -26 -10 -39 -15 -13 -5 -22 -11 -19 -13 3 -3 25 3
49 14 40 18 46 28 9 14z"/>
<path d="M7610 7151 c-58 -15 -179 -49 -270 -74 -91 -25 -190 -51 -220 -57
-30 -6 -65 -13 -77 -16 -41 -8 -26 -27 15 -20 20 4 43 8 50 8 6 1 12 5 12 10
0 5 8 8 18 7 9 -1 19 -1 22 0 3 1 70 19 150 40 154 40 368 103 410 120 46 18
-4 10 -110 -18z"/>
<path d="M8059 7033 c-13 -17 -13 -17 6 -3 11 8 22 16 24 17 2 2 0 3 -6 3 -6
0 -17 -8 -24 -17z"/>
<path d="M7855 6971 c-74 -53 -185 -142 -185 -148 0 -3 9 1 19 8 19 14 212
159 220 166 2 1 2 5 0 6 -2 2 -27 -12 -54 -32z"/>
<path d="M7995 6990 c-3 -5 -38 -30 -76 -55 -39 -25 -112 -77 -162 -115 -51
-38 -101 -76 -112 -84 -20 -15 -20 -15 3 -16 12 0 22 4 22 9 0 5 19 19 43 31
23 12 65 41 92 64 28 23 75 61 105 83 83 62 116 92 103 93 -6 0 -15 -4 -18
-10z"/>
<path d="M7635 6800 c-3 -5 -1 -10 4 -10 6 0 11 5 11 10 0 6 -2 10 -4 10 -3 0
-8 -4 -11 -10z"/>
<path d="M7300 6670 c-9 -6 -10 -10 -3 -10 6 0 15 5 18 10 8 12 4 12 -15 0z"/>
<path d="M6800 6380 c-9 -6 -10 -10 -3 -10 6 0 15 5 18 10 8 12 4 12 -15 0z"/>
<path d="M7075 6355 c-22 -19 -36 -35 -32 -35 20 0 87 42 87 55 0 22 -11 18
-55 -20z"/>
<path d="M6715 6345 c-24 -11 -26 -14 -9 -15 11 0 29 7 40 15 24 18 9 18 -31
0z"/>
<path d="M6890 6230 c-8 -5 -12 -12 -9 -15 4 -3 12 1 19 10 14 17 11 19 -10 5z"/>
<path d="M6803 6183 c-7 -2 -13 -9 -13 -14 0 -14 26 -10 40 6 10 12 10 15 -1
14 -8 0 -20 -3 -26 -6z"/>
<path d="M5850 6031 c-98 -32 -194 -123 -230 -219 -30 -79 -24 -181 13 -245
121 -206 416 -191 527 27 84 165 32 346 -120 414 -58 26 -149 37 -190 23z
m157 -105 c16 -17 17 -18 1 -13 -11 4 -19 0 -22 -11 -3 -10 -19 -26 -36 -35
-16 -10 -35 -23 -42 -30 -87 -82 -176 -129 -203 -107 -17 14 -3 95 22 128 11
15 42 42 69 60 46 32 53 34 121 30 55 -2 77 -8 90 -22z"/>
<path d="M6665 5991 c-3 -5 -2 -12 3 -15 5 -3 9 1 9 9 0 17 -3 19 -12 6z"/>
<path d="M5180 4945 c-7 -8 -9 -15 -6 -15 4 0 14 7 22 15 9 8 11 15 6 15 -5 0
-15 -7 -22 -15z"/>
<path d="M5119 4903 c-13 -17 -13 -17 6 -3 11 8 22 16 24 17 2 2 0 3 -6 3 -6
0 -17 -8 -24 -17z"/>
<path d="M3569 4833 c-13 -16 -12 -17 4 -4 16 13 21 21 13 21 -2 0 -10 -8 -17
-17z"/>
<path d="M7216 5025 c-10 -26 -7 -35 9 -35 17 0 19 18 6 38 -7 11 -10 10 -15
-3z"/>
<path d="M7637 5083 c-13 -12 -7 -51 8 -57 8 -3 21 2 30 10 19 19 19 19 -1 38
-17 17 -27 20 -37 9z"/>
<path d="M7890 5061 c0 -30 19 -45 45 -35 21 9 19 41 -4 54 -31 16 -41 12 -41
-19z"/>
<path d="M8313 5083 c-7 -2 -17 -20 -23 -38 -9 -27 -8 -41 2 -62 25 -53 78
-37 78 24 0 54 -25 87 -57 76z"/>
<path d="M7922 4708 c-15 -15 -16 -82 -2 -109 6 -10 19 -19 30 -19 43 0 57 97
18 124 -27 19 -31 19 -46 4z"/>
<path d="M8110 4700 c-11 -11 -20 -32 -20 -48 0 -31 25 -72 44 -72 22 0 49 39
49 70 0 28 -26 70 -45 70 -4 0 -17 -9 -28 -20z"/>
<path d="M1370 4150 c-14 -26 3 -60 29 -60 22 0 34 36 20 62 -13 24 -36 23
-49 -2z"/>
<path d="M1047 4096 c-112 -30 -215 -81 -314 -155 -188 -140 -231 -281 -119
-390 50 -48 293 -189 369 -213 76 -25 60 -29 168 43 30 20 80 46 112 59 32 13
63 31 70 39 9 10 12 83 12 260 0 243 0 247 -25 289 -49 87 -130 107 -273 68z
m-42 -123 c-83 -37 -186 -105 -228 -152 -20 -22 -48 -48 -63 -58 -27 -17 -27
-17 -16 4 26 48 139 136 237 184 55 27 107 49 115 49 8 0 -12 -12 -45 -27z
m130 3 c-94 -36 -105 -41 -198 -98 -48 -29 -120 -84 -159 -123 l-71 -70 40 55
c49 67 147 143 250 195 96 48 141 64 173 64 17 0 5 -8 -35 -23z m50 -45 c-9
-8 -212 -101 -221 -101 -2 0 -4 6 -4 13 0 12 67 46 155 78 55 20 85 24 70 10z
m65 -30 c0 -9 -15 -16 -113 -52 -32 -11 -56 -23 -54 -26 3 -2 39 3 81 11 86
18 125 20 111 7 -6 -5 -62 -19 -125 -30 -104 -19 -121 -25 -181 -66 -63 -43
-123 -101 -177 -170 -13 -17 -20 -23 -16 -15 4 8 23 35 42 60 l35 45 -46 -45
c-83 -78 -53 -18 36 74 84 86 131 121 63 46 -20 -22 -36 -46 -36 -53 0 -6 19
10 42 36 50 59 94 88 218 143 97 44 120 51 120 35z m-300 -73 c0 -7 -30 -31
-66 -53 -37 -22 -90 -67 -120 -99 -34 -37 -54 -53 -54 -42 0 18 134 156 151
156 6 0 24 11 41 25 33 28 48 32 48 13z m285 -59 c-103 -22 -143 -33 -180 -52
-45 -22 -178 -146 -206 -192 -26 -41 -24 -14 2 36 25 49 91 117 150 155 54 34
157 63 224 62 l50 0 -40 -9z m-524 -47 c-5 -10 -18 -25 -27 -33 -16 -12 -17
-12 -9 1 10 18 37 50 42 50 2 0 -1 -8 -6 -18z m567 -7 c-3 -3 -40 -14 -81 -24
-108 -26 -218 -100 -281 -191 l-18 -25 7 25 c4 14 19 41 35 60 37 48 166 137
215 148 44 11 132 15 123 7z m2 -63 c0 -4 -30 -18 -67 -31 -104 -36 -183 -88
-207 -138 -24 -48 -36 -54 -36 -19 0 30 70 102 134 140 60 35 176 67 176 48z
m0 -61 c0 -14 -50 -51 -69 -51 -29 0 -118 -58 -155 -101 -38 -45 -45 -45 -22
-1 23 45 70 82 153 122 85 42 93 45 93 31z"/>
<path d="M1533 4098 c-18 -13 -42 -41 -55 -63 -22 -39 -23 -48 -23 -280 0
-132 3 -252 7 -266 6 -21 20 -31 68 -48 32 -12 92 -44 133 -71 l73 -50 60 15
c55 15 291 135 378 194 82 55 106 132 67 210 -34 65 -156 180 -254 240 -212
128 -379 172 -454 119z m163 -99 c83 -25 243 -108 303 -157 75 -61 181 -170
181 -187 0 -9 -27 13 -62 51 -34 36 -94 90 -133 120 -89 67 -260 150 -342 167
-34 7 -65 16 -69 20 -15 14 56 6 122 -14z m-23 -58 c93 -32 212 -93 287 -147
49 -35 186 -191 177 -200 -3 -4 -54 43 -114 103 -99 101 -117 114 -213 160
-58 28 -136 61 -175 74 -38 12 -74 26 -79 31 -20 17 32 7 117 -21z m-21 -60
c154 -60 259 -123 329 -198 47 -50 99 -117 99 -128 0 -14 -19 2 -78 69 -105
115 -245 207 -379 247 -24 6 -51 21 -60 32 -14 16 -14 19 -3 14 8 -3 50 -19
92 -36z m23 -56 c91 -32 135 -52 135 -60 0 -3 -24 6 -54 19 -29 13 -73 27 -97
31 -24 4 -59 16 -76 27 -35 21 -45 35 -15 23 9 -5 58 -22 107 -40z m95 -104
c77 -38 160 -100 201 -150 48 -58 33 -56 -33 5 -117 106 -165 131 -377 193
-14 4 -26 12 -28 18 -6 18 164 -30 237 -66z m-147 -22 c87 -22 143 -50 218
-108 47 -37 103 -101 95 -109 -3 -2 -39 24 -81 59 -95 80 -150 112 -240 139
-38 12 -74 26 -79 31 -14 13 -4 11 87 -12z m28 -89 c59 -22 152 -83 184 -122
43 -51 27 -50 -37 3 -59 48 -206 129 -234 129 -7 0 -16 5 -20 11 -8 14 41 4
107 -21z m-20 -72 c67 -27 135 -72 150 -99 19 -37 1 -32 -58 14 -32 25 -87 60
-123 76 -76 35 -50 42 31 9z"/>
<path d="M412 3488 c-29 -15 -75 -104 -102 -200 -69 -240 -9 -642 110 -742 44
-37 111 -36 167 2 23 15 107 71 187 124 151 102 218 159 211 181 -16 44 -22
179 -13 258 9 71 8 91 -2 104 -23 28 -201 139 -332 208 -133 69 -187 85 -226
65z m87 -483 c6 -82 20 -197 31 -254 18 -92 20 -124 6 -110 -3 2 -14 51 -26
109 -21 101 -40 359 -38 500 l1 65 8 -80 c4 -44 13 -147 18 -230z m156 193
c-4 -32 -12 -58 -17 -58 -7 0 -8 14 -4 38 3 20 6 57 7 82 0 40 1 42 10 20 6
-14 7 -50 4 -82z m-118 25 c-2 -16 -4 -5 -4 22 0 28 2 40 4 28 2 -13 2 -35 0
-50z m41 -150 c-2 -191 1 -229 19 -306 23 -96 14 -128 -12 -45 -20 65 -30 289
-20 452 4 64 9 116 11 116 2 0 3 -98 2 -217z m-113 -318 c14 -60 28 -121 32
-135 4 -17 3 -22 -5 -15 -17 16 -60 183 -72 275 -5 46 -9 157 -9 245 l2 160
13 -210 c10 -147 22 -243 39 -320z m255 397 c-12 -93 -5 -241 16 -364 4 -23 3
-38 -4 -38 -15 0 -20 31 -34 193 -9 115 -9 157 0 192 7 25 12 69 12 98 1 42 3
48 11 34 8 -14 8 -46 -1 -115z m77 -69 c-1 -76 2 -174 7 -218 6 -59 5 -77 -3
-69 -29 27 -42 291 -20 380 6 24 13 44 14 44 2 0 3 -62 2 -137z m77 -215 c5
-17 4 -28 -2 -28 -19 0 -34 131 -25 230 l8 95 6 -135 c3 -74 9 -147 13 -162z
m-235 53 c1 -35 10 -95 22 -133 22 -76 20 -98 -5 -50 -24 47 -47 260 -36 337
4 30 18 -81 19 -154z"/>
<path d="M2164 3425 c-71 -37 -178 -99 -237 -138 l-108 -72 6 -35 c16 -97 17
-236 1 -298 -9 -34 -14 -67 -11 -72 3 -5 42 -38 88 -73 165 -129 305 -206 373
-207 66 0 117 68 171 228 32 96 36 120 40 247 6 152 -9 267 -48 371 -29 76
-55 104 -105 111 -36 5 -55 -3 -170 -62z m175 -241 c6 -41 11 -125 11 -187 0
-124 -19 -295 -30 -276 -5 8 -17 -6 -35 -40 -39 -77 -39 -58 -1 24 60 126 71
314 31 535 -8 47 -15 87 -14 90 2 19 30 -84 38 -146z m-79 69 c48 -156 34
-363 -35 -510 -36 -78 -57 -102 -25 -30 38 85 70 235 70 326 0 75 -15 186 -36
259 -3 12 -4 22 -1 22 3 0 16 -30 27 -67z m-55 -67 c28 -127 11 -312 -39 -428
-16 -38 -33 -53 -23 -20 63 206 70 321 31 517 -5 20 -3 27 4 20 5 -5 18 -46
27 -89z m-80 0 c24 -91 19 -237 -11 -352 -27 -106 -50 -149 -41 -79 2 22 15
85 27 140 22 100 23 193 4 318 -9 58 3 42 21 -27z m-65 -127 c0 -100 -25 -244
-51 -289 -15 -27 -10 23 12 117 18 73 20 109 17 213 -4 109 -3 121 8 95 8 -18
13 -72 14 -136z m-83 12 c6 -88 -11 -220 -33 -249 -18 -23 -17 -6 2 70 13 49
15 87 10 173 -6 83 -4 107 4 99 7 -7 14 -48 17 -93z"/>
<path d="M1306 3409 c-99 -24 -217 -126 -264 -227 -22 -49 -26 -71 -26 -152 0
-109 20 -172 80 -254 30 -40 51 -55 131 -93 l96 -46 91 5 c109 6 177 34 256
105 69 62 108 142 116 235 13 155 -33 259 -156 350 -93 69 -228 101 -324 77z
m238 -82 c118 -54 196 -178 196 -310 0 -100 -52 -207 -123 -255 -165 -110
-336 -96 -460 37 -67 71 -90 128 -90 221 -1 85 14 128 68 199 39 51 112 105
171 127 55 20 172 11 238 -19z"/>
<path d="M1345 3290 c-31 -60 -11 -103 53 -116 44 -9 72 17 72 65 0 55 -23 81
-70 81 -34 0 -42 -4 -55 -30z"/>
<path d="M1561 3179 c-27 -29 -27 -53 0 -80 30 -30 80 -23 98 15 12 25 11 31
-6 55 -26 34 -65 39 -92 10z"/>
<path d="M1153 3112 c-48 -42 -55 -75 -25 -112 18 -22 19 -22 51 -6 38 20 51
48 48 108 -3 56 -20 58 -74 10z"/>
<path d="M1337 3083 c-8 -10 -19 -30 -22 -45 -6 -22 -1 -33 23 -58 40 -39 63
-38 101 5 37 42 38 54 10 89 -25 32 -86 37 -112 9z"/>
<path d="M1540 2921 c-35 -35 -37 -53 -9 -92 23 -32 46 -36 89 -14 55 28 45
86 -20 120 -30 15 -32 15 -60 -14z"/>
<path d="M1196 2904 c-14 -14 -14 -19 0 -52 8 -20 19 -41 25 -47 27 -27 84 70
59 100 -16 20 -64 19 -84 -1z"/>
<path d="M1358 2858 c-9 -7 -22 -33 -28 -56 -10 -38 -9 -47 6 -63 22 -24 76
-34 104 -19 20 11 22 18 18 66 -3 30 -9 59 -14 64 -17 17 -68 22 -86 8z"/>
<path d="M1010 2716 c-60 -21 -212 -127 -281 -195 -82 -83 -130 -152 -136
-200 -8 -57 53 -126 185 -212 155 -101 298 -147 412 -135 65 8 91 24 125 74
l25 39 -2 252 -3 252 -84 29 c-46 16 -107 44 -135 63 -71 48 -67 46 -106 33z
m116 -135 c25 -16 68 -38 95 -47 27 -10 49 -24 49 -31 0 -7 -3 -13 -6 -13 -17
0 -184 95 -188 107 -7 18 -3 17 50 -16z m-106 -6 c0 -7 57 -43 128 -79 71 -36
117 -65 105 -66 -12 0 -73 26 -135 58 -101 51 -113 60 -116 86 -2 18 0 26 7
21 6 -3 11 -12 11 -20z m38 -123 c26 -16 79 -39 117 -52 73 -24 114 -47 60
-34 -54 12 -119 36 -167 60 -53 27 -118 89 -118 113 0 10 11 2 30 -21 17 -20
51 -49 78 -66z m-118 3 c33 -36 133 -89 218 -118 84 -28 104 -42 47 -32 -105
19 -281 113 -299 161 -8 22 8 17 34 -11z m51 -126 c35 -18 102 -45 149 -61 81
-27 83 -28 34 -23 -113 12 -217 63 -307 150 -55 54 -45 65 12 12 27 -25 77
-60 112 -78z m-9 -81 c33 -18 72 -43 88 -56 16 -12 50 -32 77 -44 26 -12 43
-23 36 -25 -43 -15 -393 221 -393 265 0 7 30 -13 66 -46 37 -33 94 -75 126
-94z m3 -116 c-3 -3 -11 0 -18 7 -9 10 -8 11 6 5 10 -3 15 -9 12 -12z"/>
<path d="M1366 1981 c-32 -36 12 -85 50 -56 17 13 18 16 4 41 -19 36 -32 39
-54 15z"/>
<path d="M7900 4141 c-14 -10 -18 -70 -5 -90 3 -6 26 -11 50 -11 51 0 68 20
63 73 -3 30 -5 32 -48 35 -25 1 -52 -2 -60 -7z"/>
<path d="M8096 4134 c-18 -46 3 -80 55 -89 27 -5 40 -2 52 10 20 19 22 66 5
83 -18 18 -105 15 -112 -4z"/>
<path d="M7693 4123 c-19 -7 -17 -92 2 -99 8 -3 34 0 57 7 41 13 43 16 46 57
l3 42 -48 -1 c-26 0 -54 -3 -60 -6z"/>
<path d="M8313 4123 c-18 -7 -16 -68 2 -83 9 -7 38 -15 65 -18 l50 -5 0 46 c0
42 -2 46 -31 56 -33 11 -65 13 -86 4z"/>
<path d="M7512 4095 c-37 -16 -47 -34 -38 -71 7 -25 10 -26 53 -21 46 5 59 15
69 54 14 52 -19 66 -84 38z"/>
<path d="M8516 4075 c-21 -56 -3 -84 72 -104 27 -8 34 -7 42 9 28 52 -1 95
-72 107 -27 4 -37 1 -42 -12z"/>
<path d="M7292 4055 c-31 -14 -33 -17 -26 -52 3 -21 9 -41 13 -46 4 -4 30 0
58 8 54 16 68 37 57 82 -7 27 -50 31 -102 8z"/>
<path d="M7108 4014 c-20 -9 -39 -22 -42 -31 -8 -20 4 -63 18 -64 29 -3 63 4
84 17 19 12 23 23 20 52 -4 44 -23 50 -80 26z"/>
<path d="M8727 4013 c-10 -10 -8 -52 3 -73 11 -20 93 -56 108 -46 21 12 23 58
5 78 -34 37 -98 60 -116 41z"/>
<path d="M6910 3962 c-31 -15 -35 -21 -35 -57 0 -33 4 -41 22 -43 54 -8 104
47 88 97 -8 26 -29 26 -75 3z"/>
<path d="M6725 3914 c-57 -21 -68 -34 -60 -78 6 -30 12 -36 31 -36 34 0 93 26
100 43 7 19 -9 80 -21 83 -6 1 -28 -4 -50 -12z"/>
<path d="M8926 3904 c-17 -44 4 -83 60 -112 17 -9 25 -8 38 7 27 29 21 76 -13
100 -35 25 -76 27 -85 5z"/>
<path d="M6524 3845 c-46 -20 -57 -39 -49 -81 6 -34 8 -36 38 -30 17 3 42 13
55 22 19 13 23 22 20 57 -3 47 -16 53 -64 32z"/>
<path d="M9115 3789 c-13 -40 4 -89 38 -109 25 -16 34 -17 44 -7 21 22 20 77
-2 77 -8 0 -15 6 -15 14 0 14 -36 46 -52 46 -3 0 -10 -9 -13 -21z"/>
<path d="M6318 3769 c-32 -16 -38 -25 -38 -52 0 -52 11 -61 56 -47 53 17 64
28 64 60 0 64 -19 73 -82 39z"/>
<path d="M6142 3700 c-50 -23 -58 -39 -40 -77 18 -37 42 -40 83 -8 36 27 43
52 25 86 -13 23 -15 23 -68 -1z"/>
<path d="M5943 3625 c-27 -11 -33 -20 -33 -44 0 -65 27 -78 88 -41 29 18 33
25 30 58 -3 31 -7 37 -28 39 -14 2 -40 -4 -57 -12z"/>
<path d="M5775 3547 c-45 -25 -56 -59 -31 -92 15 -20 15 -20 52 0 49 26 61 46
49 81 -13 36 -23 38 -70 11z"/>
<path d="M5573 3455 c-48 -29 -52 -42 -25 -75 17 -21 22 -22 54 -11 47 16 60
32 56 73 -4 43 -29 47 -85 13z"/>
<path d="M5399 3379 c-47 -27 -63 -53 -49 -79 14 -26 44 -25 86 0 38 24 50 51
34 80 -13 25 -26 25 -71 -1z"/>
<path d="M5225 3297 c-69 -27 -76 -35 -73 -80 3 -36 6 -42 23 -39 11 2 38 15
60 31 33 22 40 33 40 61 0 38 -8 43 -50 27z"/>
<path d="M4995 3187 c-37 -22 -40 -26 -37 -62 2 -22 6 -42 8 -45 10 -9 99 45
102 63 6 28 -7 67 -21 67 -6 0 -30 -11 -52 -23z"/>
<path d="M4805 3107 c-44 -25 -52 -48 -32 -87 15 -29 37 -28 79 2 28 19 36 55
22 92 -8 21 -21 20 -69 -7z"/>
<path d="M4609 3012 c-26 -24 -31 -33 -25 -56 10 -42 54 -47 100 -11 17 13 18
19 7 55 -14 49 -37 52 -82 12z"/>
<path d="M4454 2946 c-42 -18 -65 -53 -57 -85 3 -14 9 -30 13 -34 10 -12 90
24 113 51 17 19 17 22 2 51 -17 34 -26 36 -71 17z"/>
<path d="M4253 2855 c-35 -15 -40 -29 -21 -70 14 -32 48 -33 85 -1 24 21 26
27 18 52 -12 34 -37 40 -82 19z"/>
<path d="M4114 2794 c-49 -25 -64 -50 -52 -85 15 -42 32 -46 73 -15 28 21 35
34 35 60 0 46 -18 59 -56 40z"/>
<path d="M3925 2716 c-44 -19 -58 -40 -50 -76 9 -39 23 -45 68 -26 44 18 57
41 45 84 -9 35 -18 38 -63 18z"/>
<path d="M3713 2630 c-37 -22 -39 -29 -17 -71 12 -24 20 -29 37 -24 46 14 72
41 72 76 0 30 -3 34 -30 37 -17 1 -44 -6 -62 -18z"/>
<path d="M3552 2570 c-47 -21 -57 -38 -48 -75 5 -19 13 -25 34 -25 55 0 99 50
82 94 -11 31 -13 31 -68 6z"/>
<path d="M3363 2500 c-48 -21 -64 -45 -52 -77 10 -27 35 -29 85 -8 33 14 35
17 32 56 -2 24 -7 44 -13 45 -5 1 -29 -6 -52 -16z"/>
<path d="M3126 2420 c-65 -25 -80 -41 -72 -74 5 -20 13 -26 34 -26 65 1 153
67 138 105 -7 20 -40 18 -100 -5z"/>
<path d="M2897 2358 c-41 -11 -60 -40 -50 -77 7 -25 50 -28 92 -6 31 15 41 33
41 71 0 27 -17 29 -83 12z"/>
<path d="M2725 2320 c-78 -20 -85 -26 -85 -75 0 -25 4 -45 8 -45 5 0 32 7 60
15 56 17 72 36 72 84 0 33 -4 34 -55 21z"/>
<path d="M2460 2252 c-64 -31 -49 -99 19 -87 58 11 81 30 81 70 0 33 -2 35
-32 35 -18 0 -49 -8 -68 -18z"/>
<path d="M2260 2235 l-55 -11 -3 -42 c-4 -49 8 -58 64 -48 61 12 92 61 62 97
-11 13 -22 13 -68 4z"/>
<path d="M1770 2181 c0 -52 20 -71 76 -71 24 0 44 1 44 3 0 1 4 17 9 35 14 48
-12 72 -79 72 l-50 0 0 -39z"/>
<path d="M2003 2213 c-19 -4 -23 -11 -23 -41 0 -55 10 -64 66 -60 43 3 51 7
63 32 21 45 2 76 -46 75 -21 -1 -48 -4 -60 -6z"/>
<path d="M8112 3589 c-1 -64 -5 -144 -8 -178 l-7 -61 124 0 c145 0 168 8 187
65 17 49 11 191 -9 223 -26 41 -87 62 -182 62 l-87 0 -2 -52 -1 -53 -7 55 c-5
44 -7 32 -8 -61z"/>
<path d="M6941 3489 c-41 -11 -89 -26 -107 -34 l-34 -14 0 -165 c0 -92 3 -166
7 -166 20 0 163 45 195 61 20 10 50 35 67 56 29 36 31 42 31 125 0 97 -11 131
-47 147 -29 13 -22 14 -112 -10z"/>
<path d="M8102 2588 c-7 -7 -12 -29 -12 -50 l0 -38 53 0 c63 0 77 11 77 62 l0
38 -53 0 c-29 0 -58 -5 -65 -12z"/>
<path d="M8323 2593 c-20 -4 -23 -11 -23 -49 0 -49 14 -58 86 -52 38 3 39 4
42 43 5 58 -24 74 -105 58z"/>
<path d="M7924 2579 c-36 -10 -48 -38 -33 -76 8 -23 14 -25 50 -20 54 7 69 22
69 68 0 36 -2 39 -27 38 -16 0 -42 -5 -59 -10z"/>
<path d="M8523 2573 c-16 -6 -17 -79 -2 -89 25 -15 84 -23 96 -12 17 13 17 72
1 85 -16 13 -79 23 -95 16z"/>
<path d="M7725 2555 c-22 -8 -41 -15 -41 -15 -7 -1 -12 -49 -8 -67 7 -26 28
-29 87 -12 38 10 38 11 35 57 -3 54 -13 59 -73 37z"/>
<path d="M7513 2520 c-48 -19 -59 -102 -15 -108 53 -8 102 35 102 87 0 29 -41
39 -87 21z"/>
<path d="M8714 2516 c-3 -8 -4 -29 -2 -47 3 -31 8 -36 56 -53 61 -22 72 -16
72 41 0 22 -8 38 -26 52 -31 24 -92 28 -100 7z"/>
<path d="M7302 2463 c-37 -18 -48 -46 -33 -86 13 -32 13 -32 67 -6 47 22 58
43 48 83 -7 31 -33 34 -82 9z"/>
<path d="M8910 2417 c0 -29 6 -49 18 -59 23 -21 83 -51 89 -45 10 11 5 88 -8
103 -16 19 -63 44 -84 44 -11 0 -15 -11 -15 -43z"/>
<path d="M7126 2415 c-56 -20 -69 -36 -61 -75 9 -41 24 -46 79 -21 45 19 46
21 46 65 0 51 -4 53 -64 31z"/>
<path d="M6926 2355 c-56 -20 -73 -58 -43 -99 12 -16 18 -17 50 -7 47 16 59
32 55 77 -4 44 -10 48 -62 29z"/>
<path d="M9092 2315 c-17 -38 -16 -43 26 -80 46 -43 68 -45 77 -5 8 36 -17 83
-52 99 -34 15 -38 14 -51 -14z"/>
<path d="M6709 2277 c-37 -25 -48 -61 -27 -90 11 -15 18 -16 48 -6 19 6 45 22
57 35 19 20 20 28 12 54 -13 37 -42 39 -90 7z"/>
<path d="M6530 2223 c-31 -12 -50 -37 -50 -67 0 -56 12 -62 67 -35 45 23 48
26 48 64 0 35 -3 40 -25 42 -14 1 -32 -1 -40 -4z"/>
<path d="M6332 2144 c-41 -18 -57 -50 -43 -87 12 -30 21 -33 54 -16 61 32 82
73 51 103 -18 19 -19 19 -62 0z"/>
<path d="M6157 2075 c-43 -22 -60 -44 -59 -77 1 -40 14 -52 47 -44 44 11 78
52 70 84 -11 44 -26 54 -58 37z"/>
<path d="M5948 1985 c-24 -14 -28 -22 -28 -61 0 -52 14 -63 57 -41 47 25 63
49 55 82 -10 35 -42 43 -84 20z"/>
<path d="M5768 1904 c-33 -17 -45 -56 -30 -90 10 -20 15 -22 37 -14 69 26 88
56 65 101 -13 23 -35 24 -72 3z"/>
<path d="M5588 1824 c-15 -8 -32 -23 -38 -33 -11 -22 -2 -81 13 -81 22 0 96
51 102 70 17 53 -21 75 -77 44z"/>
<path d="M5405 1746 c-45 -20 -58 -41 -52 -82 8 -47 11 -49 46 -35 47 20 73
54 69 92 -3 39 -19 45 -63 25z"/>
<path d="M5198 1659 c-34 -17 -38 -24 -38 -57 0 -54 10 -65 46 -52 44 17 64
40 64 75 0 28 -15 56 -29 55 -4 -1 -23 -10 -43 -21z"/>
<path d="M5015 1580 c-45 -30 -54 -46 -45 -86 5 -20 11 -38 14 -41 3 -3 25 5
51 17 50 24 64 54 49 99 -12 32 -31 35 -69 11z"/>
<path d="M4819 1487 c-39 -26 -49 -69 -25 -102 14 -20 15 -20 51 -1 48 26 59
48 45 91 -14 41 -25 43 -71 12z"/>
<path d="M4638 1413 c-42 -28 -48 -54 -22 -91 19 -28 38 -28 76 -1 26 19 29
26 25 56 -6 34 -23 64 -36 62 -3 0 -23 -12 -43 -26z"/>
<path d="M4473 1340 c-47 -21 -60 -49 -44 -93 13 -33 37 -35 82 -4 28 19 34
29 32 56 -2 53 -20 64 -70 41z"/>
<path d="M4295 1271 c-11 -5 -29 -18 -39 -30 -19 -20 -19 -23 -3 -56 19 -39
35 -43 78 -18 36 22 44 45 27 80 -14 30 -32 37 -63 24z"/>
<path d="M4088 1184 c-31 -16 -33 -26 -17 -73 14 -40 43 -41 88 -3 30 24 33
32 26 60 -6 28 -11 32 -38 32 -18 -1 -44 -8 -59 -16z"/>
<path d="M3932 1125 c-39 -17 -46 -33 -38 -80 8 -42 28 -45 77 -12 37 25 47
54 29 86 -13 24 -23 25 -68 6z"/>
<path d="M3751 1062 c-46 -23 -58 -44 -45 -79 8 -23 15 -28 42 -27 68 4 100
51 72 105 -13 24 -25 24 -69 1z"/>
<path d="M3574 1006 c-32 -14 -64 -50 -64 -72 0 -7 8 -22 18 -34 l18 -23 47
21 c50 22 58 42 37 96 -11 30 -14 30 -56 12z"/>
<path d="M3342 923 c-32 -16 -47 -45 -40 -80 5 -27 51 -28 103 -3 45 22 51 33
39 78 -8 27 -52 30 -102 5z"/>
<path d="M1384 916 c-10 -25 3 -45 40 -62 41 -20 66 -13 66 19 0 31 -19 46
-64 54 -27 4 -37 2 -42 -11z"/>
<path d="M3098 847 c-50 -24 -67 -38 -71 -57 -7 -35 -2 -39 40 -29 21 5 54 9
73 9 54 0 82 24 78 68 -3 31 -7 37 -28 39 -14 1 -55 -13 -92 -30z"/>
<path d="M1549 844 c-13 -37 10 -70 60 -85 57 -17 71 -8 71 45 0 40 -3 45 -31
55 -56 19 -88 14 -100 -15z"/>
<path d="M2880 793 c-37 -19 -46 -39 -36 -79 8 -32 51 -32 97 -1 32 21 60 70
47 82 -16 16 -76 15 -108 -2z"/>
<path d="M1756 761 c-3 -23 -4 -46 -1 -51 3 -5 29 -16 57 -25 60 -17 73 -11
84 42 5 26 2 34 -20 48 -14 10 -46 20 -70 22 l-43 5 -7 -41z"/>
<path d="M2701 769 c-56 -11 -71 -24 -71 -64 0 -49 18 -58 74 -39 52 18 70 41
60 79 -8 32 -10 33 -63 24z"/>
<path d="M1994 736 c-3 -8 -4 -31 -2 -52 l3 -39 50 -3 c54 -4 75 12 75 55 0
26 -19 38 -78 47 -32 5 -44 3 -48 -8z"/>
<path d="M2485 741 c-52 -13 -75 -30 -75 -56 0 -39 27 -58 74 -51 56 9 68 22
64 70 -3 44 -12 49 -63 37z"/>
<path d="M2249 723 c-41 -5 -52 -25 -42 -74 5 -27 9 -29 54 -29 40 0 51 4 65
25 22 34 3 88 -31 83 -5 -1 -26 -3 -46 -5z"/>
<path d="M4345 2406 c-48 -21 -96 -67 -116 -111 -15 -31 -19 -65 -19 -157 l0
-117 30 -16 c35 -18 38 -30 10 -45 -11 -6 -20 -21 -20 -33 0 -18 -2 -19 -10
-7 -7 10 -10 -19 -10 -91 0 -94 3 -110 23 -140 31 -47 79 -58 142 -34 61 23
109 65 133 118 26 54 41 276 22 312 -10 18 -10 31 -1 56 30 85 2 242 -47 268
-28 15 -100 13 -137 -3z"/>
<path d="M3544 2097 c-11 -7 -46 -34 -77 -62 -42 -36 -60 -60 -68 -90 -15 -55
-17 -237 -3 -242 6 -2 20 -10 30 -18 18 -14 18 -15 -3 -32 -20 -16 -24 -30
-29 -124 -8 -118 -2 -139 49 -169 93 -57 236 16 266 136 6 23 11 95 11 158 0
106 -2 115 -20 121 -11 3 -20 15 -20 25 0 10 9 22 20 25 18 6 20 15 20 101 0
108 -13 145 -60 169 -35 18 -87 19 -116 2z"/>
<path d="M8321 1984 c0 -11 3 -14 6 -6 3 7 2 16 -1 19 -3 4 -6 -2 -5 -13z"/>
<path d="M7583 2010 c-13 -5 -23 -17 -23 -26 0 -13 7 -15 33 -11 17 2 40 0 50
-5 22 -11 35 16 17 37 -14 17 -43 18 -77 5z"/>
<path d="M7720 1975 c0 -30 3 -35 24 -35 13 0 31 -3 40 -6 26 -10 20 42 -6 60
-39 27 -58 21 -58 -19z"/>
<path d="M7457 1988 c-21 -7 -27 -16 -25 -32 2 -16 9 -20 28 -18 34 5 70 29
70 47 0 17 -31 18 -73 3z"/>
<path d="M7827 1958 c-8 -30 -1 -38 37 -38 44 0 56 32 19 49 -36 16 -50 14
-56 -11z"/>
<path d="M7339 1947 c-19 -13 -35 -33 -37 -46 -2 -13 0 -22 5 -20 80 35 93 44
93 66 0 29 -18 29 -61 0z"/>
<path d="M7921 1926 c-10 -11 -7 -17 11 -30 34 -24 58 -21 58 8 0 35 -46 49
-69 22z"/>
<path d="M8036 1878 c-9 -12 -12 -25 -8 -29 13 -11 70 -28 76 -22 13 13 5 43
-16 57 -29 21 -34 20 -52 -6z"/>
<path d="M8156 1838 c-6 -25 15 -48 46 -48 24 0 24 32 0 53 -25 23 -39 21 -46
-5z"/>
<path d="M8267 1803 c-15 -14 -5 -32 27 -52 18 -12 41 -21 50 -21 30 0 16 35
-24 58 -43 25 -44 25 -53 15z"/>
<path d="M8396 1732 c-13 -12 -5 -32 21 -57 34 -30 40 -31 48 -4 4 13 1 27
-10 39 -17 19 -50 32 -59 22z"/>
<path d="M8514 1638 c-4 -6 3 -19 16 -30 27 -22 34 -22 50 -3 10 12 10 18 0
30 -15 18 -56 20 -66 3z"/>
<path d="M8615 1569 c-4 -6 -5 -11 -3 -12 2 -1 23 -20 48 -42 25 -22 39 -33
33 -25 -7 7 -13 24 -13 36 0 12 -3 29 -6 38 -7 18 -49 22 -59 5z"/>
<path d="M6517 1583 c-11 -18 -39 -134 -34 -139 6 -6 77 14 90 25 4 4 0 28 -9
53 -16 47 -38 76 -47 61z"/>
<path d="M7560 1329 c-16 -28 4 -49 43 -46 61 5 64 67 3 67 -25 0 -38 -6 -46
-21z"/>
<path d="M7696 1335 c-11 -31 -7 -55 12 -56 9 0 29 -3 44 -5 20 -3 30 1 37 15
13 23 5 51 -14 51 -7 0 -26 3 -42 6 -23 4 -32 2 -37 -11z"/>
<path d="M7408 1306 c-53 -18 -111 -42 -129 -52 -35 -21 -76 -70 -67 -80 11
-10 109 50 103 64 -6 17 25 28 35 12 5 -8 17 -10 34 -6 21 5 26 11 21 26 -4
12 -2 20 4 20 6 0 11 -7 11 -16 0 -10 6 -14 18 -10 9 3 34 8 55 12 34 6 38 9
35 32 -2 14 -7 27 -13 29 -5 1 -54 -13 -107 -31z"/>
<path d="M7865 1301 c-13 -42 20 -66 81 -59 40 4 40 29 1 56 -40 27 -74 28
-82 3z"/>
<path d="M8022 1244 c2 -24 11 -31 52 -47 40 -14 51 -15 57 -5 25 39 2 62 -71
74 -41 7 -42 7 -38 -22z"/>
<path d="M8184 1206 c-10 -27 1 -50 34 -69 38 -22 62 -11 62 29 0 38 -83 73
-96 40z"/>
<path d="M8326 1133 c-14 -14 -4 -49 21 -75 33 -35 50 -35 65 -3 9 20 8 28 -6
44 -20 22 -71 43 -80 34z"/>
<path d="M8466 1014 c-20 -20 -7 -48 34 -69 38 -20 40 -19 40 10 0 62 -40 94
-74 59z"/>
<path d="M8560 925 c-10 -11 -6 -22 17 -54 15 -22 33 -39 38 -37 19 5 16 45
-6 76 -26 34 -32 36 -49 15z"/>
<path d="M3065 7868 c-37 -13 -73 -44 -81 -70 -9 -31 15 -76 54 -100 50 -31
139 -32 179 -2 68 51 69 108 0 148 -50 30 -111 39 -152 24z"/>
<path d="M3496 7749 c-21 -16 -26 -29 -26 -62 0 -45 18 -74 61 -101 44 -28 89
-37 131 -26 98 27 89 143 -16 191 -55 25 -116 24 -150 -2z"/>
<path d="M2010 7710 c-9 -6 -10 -10 -3 -10 6 0 15 5 18 10 8 12 4 12 -15 0z"/>
<path d="M9059 7623 l-24 -28 28 24 c15 14 27 26 27 28 0 8 -8 1 -31 -24z"/>
<path d="M8989 7553 l-34 -38 38 34 c34 33 42 41 34 41 -2 0 -19 -17 -38 -37z"/>
<path d="M1719 7526 c-103 -55 -163 -95 -155 -103 5 -5 266 146 266 153 0 8
-19 0 -111 -50z"/>
<path d="M1885 7534 c-22 -14 -85 -48 -140 -76 -99 -50 -187 -108 -255 -169
-40 -35 -25 -29 40 17 60 42 228 144 239 144 5 0 46 25 92 55 83 54 101 76 24
29z"/>
<path d="M3204 7416 c-113 -26 -201 -88 -264 -187 -48 -74 -64 -145 -64 -284
1 -224 70 -377 208 -455 63 -37 76 -37 117 -2 32 26 37 27 130 24 115 -3 226
17 309 54 61 27 100 63 157 147 36 52 64 67 126 67 80 1 153 52 171 120 6 25
6 25 -5 3 -7 -13 -18 -23 -26 -23 -7 0 -13 -5 -13 -10 0 -6 -12 -5 -28 4 -26
13 -28 19 -30 83 -2 51 -8 76 -25 100 -12 18 -25 33 -29 33 -5 0 -8 6 -8 13 0
23 -169 157 -242 192 -26 12 -60 35 -75 52 -55 59 -284 97 -409 69z m346 -276
c19 -11 47 -29 61 -42 36 -31 111 -133 139 -187 20 -41 21 -49 11 -97 -7 -31
-27 -71 -47 -98 -64 -84 -253 -153 -375 -136 -59 9 -146 36 -166 52 -10 8 -13
5 -13 -10 0 -33 -19 -36 -27 -5 -4 15 -8 87 -7 158 0 110 4 139 23 187 57 147
164 216 311 201 30 -3 71 -13 90 -23z"/>
<path d="M3325 7101 c-68 -30 -129 -112 -141 -188 -6 -37 -3 -42 51 -96 59
-59 121 -87 189 -87 106 0 207 81 222 176 13 91 -22 159 -101 195 -54 25 -166
25 -220 0z m166 -80 c16 -16 29 -33 29 -38 0 -5 -19 -21 -42 -36 -56 -36 -111
-37 -134 -2 -20 31 -8 61 34 88 41 25 79 21 113 -12z"/>
<path d="M3136 6762 c-2 -4 -1 -14 5 -22 7 -12 9 -10 9 8 0 23 -5 28 -14 14z"/>
<path d="M3140 6711 c0 -6 5 -13 10 -16 6 -3 10 1 10 9 0 9 -4 16 -10 16 -5 0
-10 -4 -10 -9z"/>
<path d="M2045 7330 c-11 -5 -60 -27 -110 -48 -57 -24 -135 -70 -212 -126 -68
-48 -123 -90 -123 -92 0 -5 47 21 180 101 47 28 123 72 170 98 103 56 160 96
95 67z"/>
<path d="M8695 7298 l-40 -43 43 40 c39 36 47 45 39 45 -2 0 -21 -19 -42 -42z"/>
<path d="M3716 7306 c3 -7 11 -13 19 -13 22 0 18 14 -4 20 -13 3 -18 0 -15 -7z"/>
<path d="M3760 7290 c0 -5 5 -10 11 -10 5 0 7 5 4 10 -3 6 -8 10 -11 10 -2 0
-4 -4 -4 -10z"/>
<path d="M1889 7152 c-95 -52 -135 -79 -128 -86 4 -4 212 115 228 130 15 14
-26 -4 -100 -44z"/>
<path d="M8540 7155 c-6 -8 -10 -19 -8 -26 2 -6 9 0 16 15 13 29 10 33 -8 11z"/>
<path d="M4281 7053 c-50 -26 -73 -75 -69 -145 7 -94 87 -183 177 -195 34 -5
47 -1 76 21 47 36 65 74 65 139 0 45 -6 63 -32 103 -39 56 -78 82 -139 90 -32
4 -54 0 -78 -13z"/>
<path d="M4013 7025 c-9 -25 2 -27 22 -5 17 18 17 20 1 20 -9 0 -19 -7 -23
-15z"/>
<path d="M2040 6866 c-121 -22 -248 -109 -345 -237 -25 -33 -45 -61 -45 -64 0
-3 -9 -14 -20 -25 -11 -11 -23 -32 -26 -47 -4 -16 -12 -31 -18 -35 -8 -5 -7
-8 2 -8 6 0 12 -5 12 -11 0 -5 -5 -7 -11 -3 -8 4 -9 0 -4 -15 3 -11 3 -26 -2
-33 -12 -19 -13 -32 -19 -261 -5 -156 -3 -211 6 -222 7 -8 17 -12 22 -9 10 6
58 -44 79 -81 8 -14 3 -12 -18 8 -16 15 -32 24 -36 20 -4 -3 -7 -1 -7 6 0 7
-4 10 -9 7 -15 -10 13 -56 34 -57 20 0 20 0 0 -8 -18 -7 -17 -10 14 -25 46
-24 84 -15 151 37 l55 42 130 0 130 0 89 43 c76 36 104 57 188 142 98 98 142
125 190 118 20 -3 23 -9 24 -48 1 -25 3 -56 4 -70 2 -25 2 -25 10 3 10 34 76
143 126 210 20 26 31 47 25 47 -6 0 -31 -21 -56 -47 l-45 -48 0 70 c0 75 14
110 69 169 22 24 22 27 5 18 -11 -6 -26 -18 -34 -26 -16 -21 -69 -21 -77 0 -4
10 8 30 33 55 45 46 34 52 -19 8 l-37 -30 -25 54 c-35 72 -144 209 -202 252
-45 32 -239 116 -266 114 -7 0 -41 -6 -77 -13z m158 -330 c63 -23 95 -51 175
-155 101 -133 131 -183 90 -150 -15 12 -16 12 -10 -4 5 -13 -9 -40 -47 -92
-79 -106 -171 -165 -299 -191 -10 -2 -27 -6 -38 -9 -12 -4 -19 -2 -19 7 0 10
-3 9 -11 -2 -9 -12 -12 -13 -16 -1 -5 11 -7 11 -14 0 -8 -12 -11 -11 -19 1 -6
9 -10 11 -10 3 0 -8 -13 -4 -37 10 -21 12 -51 29 -68 37 -20 10 -31 25 -36 48
-10 47 -19 52 -13 6 4 -32 3 -35 -5 -17 -6 13 -13 62 -17 110 -18 245 102 411
297 413 31 0 75 -6 97 -14z"/>
<path d="M2013 6484 c-82 -30 -162 -135 -163 -212 0 -26 10 -43 48 -80 64 -65
113 -87 187 -86 162 1 272 161 212 306 -30 71 -182 109 -284 72z m127 -71 c27
-18 38 -29 58 -54 11 -15 7 -20 -28 -38 -107 -56 -213 12 -129 83 36 30 65 33
99 9z"/>
<path d="M2505 6740 c3 -5 10 -10 16 -10 5 0 9 5 9 10 0 6 -7 10 -16 10 -8 0
-12 -4 -9 -10z"/>
<path d="M2543 6683 c9 -15 46 -23 53 -12 3 5 -1 9 -10 9 -8 0 -22 3 -32 7
-11 4 -15 3 -11 -4z"/>
<path d="M8325 6559 c-4 -6 -5 -12 -2 -15 2 -3 7 2 10 11 7 17 1 20 -8 4z"/>
<path d="M8305 6519 c-4 -6 -5 -12 -2 -15 2 -3 7 2 10 11 7 17 1 20 -8 4z"/>
<path d="M2743 6368 c-21 -23 -43 -61 -43 -74 0 -9 79 79 80 89 0 14 -17 7
-37 -15z"/>
<path d="M8220 6371 c-14 -27 -13 -46 5 -61 13 -11 15 -6 15 34 0 50 -4 56
-20 27z"/>
<path d="M2780 6253 c-114 -149 -183 -273 -151 -273 6 0 11 5 11 11 0 7 10 20
22 30 11 11 18 19 15 19 -3 0 21 46 54 102 74 124 81 138 75 138 -2 0 -14 -12
-26 -27z"/>
<path d="M3400 6178 c1 -7 7 -24 15 -38 20 -34 19 -80 0 -80 -9 0 -33 9 -54
20 -21 10 -69 24 -105 30 -61 10 -68 9 -88 -10 -12 -11 -28 -20 -35 -20 -8 0
-12 -4 -8 -9 7 -13 -75 -61 -105 -61 -87 0 -195 -85 -221 -174 -24 -82 -60
-71 -83 26 -12 51 -11 58 12 109 55 124 68 189 16 87 -15 -29 -38 -68 -52 -86
-23 -30 -24 -38 -20 -125 7 -134 50 -207 121 -207 34 0 61 13 105 51 18 16 42
29 53 29 27 0 89 -33 114 -60 29 -32 69 -50 111 -50 29 0 44 8 76 40 42 42 45
57 23 141 -9 36 20 96 56 114 15 8 43 15 62 15 44 0 83 36 93 85 9 48 -12 141
-37 166 -22 22 -49 25 -49 7z"/>
<path d="M3471 6177 c2 -1 11 -8 21 -15 12 -10 18 -10 24 -1 4 8 3 9 -4 5 -7
-4 -12 -2 -12 3 0 6 -7 11 -17 11 -9 0 -14 -1 -12 -3z"/>
<path d="M3535 6113 c61 -97 164 -174 283 -214 34 -11 62 -24 62 -28 0 -5 -28
-38 -62 -74 -55 -57 -71 -68 -131 -86 -37 -11 -98 -23 -135 -27 -98 -9 -123
-19 -183 -75 -71 -66 -100 -80 -173 -86 -80 -7 -116 -27 -205 -113 -129 -123
-223 -163 -330 -140 -68 14 -69 16 -46 94 29 94 46 223 39 291 -9 90 -25 86
-39 -10 -7 -53 -31 -133 -55 -190 -27 -63 -89 -155 -103 -152 -13 2 -46 -78
-46 -115 -1 -39 18 -75 43 -82 11 -3 56 -9 99 -12 75 -7 79 -6 106 20 16 15
44 30 62 33 19 3 39 9 45 14 6 5 40 18 76 29 35 11 98 34 139 51 41 17 130 51
199 76 142 52 182 71 260 123 30 20 109 67 175 105 66 38 152 88 191 112 39
23 86 46 105 49 46 9 186 91 206 121 22 33 21 78 -2 103 -17 19 -43 28 -185
65 -196 51 -316 89 -361 116 l-52 30 18 -28z"/>
<path d="M8255 6050 c32 -250 51 -318 91 -345 31 -20 166 -47 162 -33 -2 6
-20 11 -40 13 -51 3 -63 15 -94 98 -15 40 -38 95 -52 122 -14 28 -35 79 -48
115 -17 46 -22 55 -19 30z"/>
<path d="M776 5953 c-35 -91 -148 -465 -175 -578 -12 -49 -43 -196 -69 -325
l-48 -235 -54 -10 -55 -10 51 -3 c60 -3 171 20 231 49 55 27 87 91 108 219 22
126 25 143 30 138 2 -2 16 -69 30 -148 15 -80 33 -155 42 -168 19 -30 98 -67
190 -89 40 -9 73 -19 73 -23 0 -3 -37 -11 -82 -18 -102 -15 -161 -42 -181 -85
-8 -18 -28 -94 -43 -169 -16 -76 -31 -138 -35 -138 -3 0 -14 55 -23 122 -18
124 -34 178 -63 210 -22 24 -123 55 -230 69 -117 15 -113 22 -112 -200 1 -121
4 -164 10 -136 4 22 8 78 9 125 0 47 3 102 6 123 6 36 8 37 50 37 l44 0 1 -62
c1 -172 17 -536 23 -546 5 -8 14 -6 28 8 12 11 25 17 30 14 5 -3 7 -1 6 4 -8
25 140 113 317 189 107 46 136 53 270 72 115 16 184 20 295 17 124 -4 286 -26
313 -43 4 -2 22 -9 40 -13 30 -9 31 -8 12 6 -11 8 -49 31 -85 51 -79 45 -171
114 -227 170 -22 24 -47 43 -53 43 -14 0 -49 40 -50 57 0 7 -12 20 -27 30 -16
10 -32 24 -37 31 -4 8 -34 44 -65 80 -32 37 -81 108 -111 157 -29 50 -65 108
-80 130 -32 47 -85 158 -110 232 -10 28 -24 61 -30 73 -24 44 -91 337 -106
465 -9 72 -20 134 -24 138 -4 5 -19 -22 -34 -60z"/>
<path d="M8520 5607 c0 -2 9 -21 20 -43 18 -36 19 -37 20 -13 0 29 14 44 45
52 11 2 -4 5 -32 6 -29 0 -53 0 -53 -2z"/>
<path d="M3689 5464 c-25 -30 -205 -143 -292 -183 -96 -44 -186 -73 -290 -91
-37 -7 -70 -16 -73 -21 -3 -5 -14 -9 -25 -9 -11 0 -22 -7 -26 -17 -15 -40 116
-103 215 -103 52 0 73 8 237 91 237 119 238 121 270 220 14 44 25 91 25 105 0
27 -21 32 -41 8z"/>
<path d="M8792 4345 c0 -16 2 -22 5 -12 2 9 2 23 0 30 -3 6 -5 -1 -5 -18z"/>
<path d="M8790 4288 c0 -9 5 -20 10 -23 13 -8 13 5 0 25 -8 13 -10 13 -10 -2z"/>
<path d="M401 4034 c0 -11 3 -14 6 -6 3 7 2 16 -1 19 -3 4 -6 -2 -5 -13z"/>
<path d="M6321 3944 c0 -11 3 -14 6 -6 3 7 2 16 -1 19 -3 4 -6 -2 -5 -13z"/>
<path d="M280 3755 c0 -8 7 -15 15 -15 8 0 15 4 15 9 0 5 -7 11 -15 15 -9 3
-15 0 -15 -9z"/>
<path d="M187 3643 c-4 -3 -7 -11 -7 -17 0 -6 5 -5 12 2 6 6 9 14 7 17 -3 3
-9 2 -12 -2z"/>
<path d="M2 3110 c0 -19 2 -27 5 -17 2 9 2 25 0 35 -3 9 -5 1 -5 -18z"/>
<path d="M31 3084 c0 -11 3 -14 6 -6 3 7 2 16 -1 19 -3 4 -6 -2 -5 -13z"/>
<path d="M3 2965 c0 -22 2 -30 4 -17 2 12 2 30 0 40 -3 9 -5 -1 -4 -23z"/>
<path d="M4185 2990 c-3 -6 1 -7 9 -4 18 7 21 14 7 14 -6 0 -13 -4 -16 -10z"/>
<path d="M82 2910 c0 -14 2 -19 5 -12 2 6 2 18 0 25 -3 6 -5 1 -5 -13z"/>
<path d="M51 2860 c-1 -34 4 -68 11 -80 14 -23 33 -27 25 -6 -3 7 0 22 7 32 7
11 10 30 6 44 -5 22 -7 23 -13 7 -11 -30 -26 -9 -20 28 3 20 1 35 -4 35 -6 0
-11 -27 -12 -60z"/>
<path d="M355 2200 c-3 -5 -1 -10 4 -10 6 0 11 5 11 10 0 6 -2 10 -4 10 -3 0
-8 -4 -11 -10z"/>
<path d="M664 1857 c10 -7 31 -22 46 -34 15 -13 32 -23 37 -23 5 0 27 -18 48
-40 32 -33 38 -44 29 -58 -6 -9 -25 -18 -43 -20 -17 -2 -31 -7 -31 -11 0 -4
17 -24 37 -44 39 -40 110 -67 172 -67 22 0 67 -16 115 -40 43 -22 85 -40 92
-40 20 0 25 34 22 130 l-3 85 -121 25 c-132 28 -318 96 -307 113 3 5 2 8 -3 4
-5 -3 -27 3 -49 13 -44 21 -71 25 -41 7z"/>
<path d="M1017 1443 c-4 -3 -7 -13 -7 -20 0 -11 9 -12 38 -7 l37 7 -24 -22
c-18 -16 -20 -21 -8 -21 9 0 23 -10 31 -21 15 -21 15 -21 35 12 25 40 25 46 7
65 -15 14 -97 20 -109 7z m56 -10 c-7 -2 -19 -2 -25 0 -7 3 -2 5 12 5 14 0 19
-2 13 -5z"/>
<path d="M6945 815 c-16 -14 -25 -25 -19 -25 6 0 21 11 34 25 30 32 24 31 -15
0z"/>
<path d="M1462 596 c7 -8 15 -12 17 -11 5 6 -10 25 -20 25 -5 0 -4 -6 3 -14z"/>
<path d="M1530 510 c8 -5 20 -10 25 -10 6 0 3 5 -5 10 -8 5 -19 10 -25 10 -5
0 -3 -5 5 -10z"/>
<path d="M1625 475 c17 -8 37 -14 45 -14 8 0 -1 7 -20 14 -46 18 -64 17 -25 0z"/>
<path d="M1710 450 c8 -5 22 -9 30 -9 10 0 8 3 -5 9 -27 12 -43 12 -25 0z"/>
<path d="M2100 456 c0 -2 7 -6 15 -10 8 -3 15 -1 15 4 0 6 -7 10 -15 10 -8 0
-15 -2 -15 -4z"/>
<path d="M1770 430 c8 -5 24 -10 35 -10 17 0 17 2 5 10 -8 5 -24 10 -35 10
-17 0 -17 -2 -5 -10z"/>
<path d="M8432 424 c-24 -26 -9 -33 22 -11 15 11 16 15 5 19 -8 3 -20 -1 -27
-8z"/>
<path d="M1870 410 c8 -5 26 -9 40 -9 23 0 23 1 5 9 -11 5 -29 9 -40 9 -17 1
-17 -1 -5 -9z"/>
<path d="M8343 402 c-27 -4 -31 -22 -5 -22 21 0 47 16 36 22 -5 2 -19 2 -31 0z"/>
<path d="M7850 370 c20 -13 50 -13 50 0 0 6 -15 10 -32 10 -25 0 -29 -3 -18
-10z"/>
<path d="M2800 336 c0 -2 7 -7 16 -10 8 -3 12 -2 9 4 -6 10 -25 14 -25 6z"/>
<path d="M5480 110 c-21 -7 -21 -8 -5 -9 11 0 27 4 35 9 18 11 5 11 -30 0z"/>
<path d="M3528 103 c7 -3 16 -2 19 1 4 3 -2 6 -13 5 -11 0 -14 -3 -6 -6z"/>
<path d="M3610 90 c8 -5 24 -10 35 -10 17 0 17 2 5 10 -8 5 -24 10 -35 10 -17
0 -17 -2 -5 -10z"/>
<path d="M5378 83 c7 -3 16 -2 19 1 4 3 -2 6 -13 5 -11 0 -14 -3 -6 -6z"/>
<path d="M5280 70 l-25 -8 25 0 c14 0 34 3 45 8 l20 9 -20 -1 c-11 0 -31 -4
-45 -8z"/>
<path d="M3748 63 c6 -2 18 -2 25 0 6 3 1 5 -13 5 -14 0 -19 -2 -12 -5z"/>
<path d="M3850 50 c8 -5 29 -10 45 -10 23 0 27 3 15 10 -8 5 -28 10 -45 10
-23 0 -27 -3 -15 -10z"/>
<path d="M5147 48 c-7 -5 -1 -8 13 -8 14 0 31 4 39 9 10 7 6 9 -13 8 -15 -1
-33 -5 -39 -9z"/>
<path d="M4045 31 c3 -6 22 -11 42 -11 44 0 41 5 -10 14 -27 5 -37 4 -32 -3z"/>
<path d="M4995 30 l-40 -7 50 -1 c28 -1 57 3 65 8 18 11 -11 11 -75 0z"/>
<path d="M4303 8 c16 -10 508 -10 524 0 6 4 -112 7 -262 7 -150 0 -268 -3
-262 -7z"/>
</g>
</svg>
